<?xml version="1.0" encoding="UTF-8" standalone="no"?>
<svg width="30px" height="30px" viewBox="0 0 30 30" version="1.1" xmlns="http://www.w3.org/2000/svg" xmlns:xlink="http://www.w3.org/1999/xlink" xmlns:sketch="http://www.bohemiancoding.com/sketch/ns">
    <!-- Generator: Sketch 3.3.2 (12043) - http://www.bohemiancoding.com/sketch -->
    <title>android</title>
    <desc>Created with Sketch.</desc>
    <defs></defs>
    <g id="Page-1" stroke="none" stroke-width="1" fill="none" fill-rule="evenodd" sketch:type="MSPage">
        <path d="M12.6026864,8.325874 C12.3214361,8.325874 12.0937573,8.08480229 12.0937573,7.80355195 C12.0937573,7.52230162 12.3214361,7.2812299 12.6026864,7.2812299 C12.8973297,7.2812299 13.1250085,7.52230162 13.1250085,7.80355195 C13.1250085,8.08480229 12.8973297,8.325874 12.6026864,8.325874 L12.6026864,8.325874 Z M18.2544789,8.325874 C17.9598357,8.325874 17.7321568,8.08480229 17.7321568,7.80355195 C17.7321568,7.52230162 17.9598357,7.2812299 18.2544789,7.2812299 C18.5357292,7.2812299 18.7634081,7.52230162 18.7634081,7.80355195 C18.7634081,8.08480229 18.5357292,8.325874 18.2544789,8.325874 L18.2544789,8.325874 Z M7.37946593,10.7901627 C6.61607216,10.7901627 6,11.4062348 6,12.1562357 L6,17.9151711 C6,18.6785649 6.61607216,19.2946371 7.37946593,19.2946371 C8.1428597,19.2946371 8.74553899,18.6785649 8.74553899,17.9151711 L8.74553899,12.1562357 C8.74553899,11.4062348 8.12946682,10.7901627 7.37946593,10.7901627 L7.37946593,10.7901627 Z M21.5759114,11.0446272 L9.28125391,11.0446272 L9.28125391,19.9642807 C9.28125391,20.781246 9.93750469,21.4374968 10.75447,21.4374968 L11.7455426,21.4374968 L11.7589354,24.477679 C11.7589354,25.2410727 12.3750076,25.8571449 13.1250085,25.8571449 C13.8884023,25.8571449 14.5044744,25.2410727 14.5044744,24.477679 L14.5044744,21.4374968 L16.3526909,21.4374968 L16.3526909,24.477679 C16.3526909,25.2410727 16.9687631,25.8571449 17.7321568,25.8571449 C18.4955506,25.8571449 19.1116228,25.2410727 19.1116228,24.477679 L19.1116228,21.4374968 L20.1160883,21.4374968 C20.9196606,21.4374968 21.5759114,20.781246 21.5759114,19.9642807 L21.5759114,11.0446272 Z M18.4687649,5.62051363 L19.4196589,3.86604726 C19.4732303,3.77229715 19.4464446,3.65176129 19.3526945,3.59818979 C19.2589444,3.55801118 19.1384085,3.58479692 19.084837,3.67854703 L18.1205502,5.44640628 C17.3035849,5.08479871 16.3928695,4.88390561 15.4285827,4.88390561 C14.4642958,4.88390561 13.5535804,5.08479871 12.7366152,5.44640628 L11.7723283,3.67854703 C11.7187568,3.58479692 11.598221,3.55801118 11.5044708,3.59818979 C11.4107207,3.65176129 11.383935,3.77229715 11.4375065,3.86604726 L12.3884005,5.62051363 C10.5000054,6.5848005 9.22768242,8.43301699 9.22768242,10.5624838 L21.61609,10.5624838 C21.61609,8.43301699 20.3437671,6.5848005 18.4687649,5.62051363 L18.4687649,5.62051363 Z M24.8571653,12.1562357 C24.8571653,11.3928419 24.2410932,10.7901627 23.4776994,10.7901627 C22.7276985,10.7901627 22.1116263,11.3928419 22.1116263,12.1562357 L22.1116263,17.9151711 C22.1116263,18.6785649 22.7276985,19.2946371 23.4776994,19.2946371 C24.2410932,19.2946371 24.8571653,18.6785649 24.8571653,17.9151711 L24.8571653,12.1562357 Z" id="" fill="#000000" sketch:type="MSShapeGroup"></path>
    </g>
</svg>