<?xml version="1.0" encoding="UTF-8" standalone="no"?>
<svg width="30px" height="30px" viewBox="0 0 30 30" version="1.1" xmlns="http://www.w3.org/2000/svg" xmlns:xlink="http://www.w3.org/1999/xlink" xmlns:sketch="http://www.bohemiancoding.com/sketch/ns">
    <!-- Generator: Sketch 3.3.2 (12043) - http://www.bohemiancoding.com/sketch -->
    <title>apple</title>
    <desc>Created with Sketch.</desc>
    <defs></defs>
    <g id="Page-1" stroke="none" stroke-width="1" fill="none" fill-rule="evenodd" sketch:type="MSPage">
        <path d="M24.6562722,19.1294571 C23.8660927,18.8883854 23.1562705,18.3258847 22.5401983,17.4419551 C21.9241261,16.5580255 21.61609,15.55356 21.61609,14.4553444 C21.61609,13.437486 21.9107333,12.5133778 22.4866268,11.6830197 C22.8080558,11.2142691 23.3169849,10.6919471 24.0134143,10.1026606 C23.5580566,9.54015997 23.0893061,9.08480229 22.6205555,8.76337333 C21.7901974,8.18747979 20.8393034,7.89283658 19.7678736,7.89283658 C19.1116228,7.89283658 18.3348361,8.05355106 17.4509065,8.34819426 C16.5669769,8.65623035 15.924119,8.80355195 15.5357257,8.80355195 C15.2276896,8.80355195 14.6116174,8.66962322 13.6875092,8.40176576 C12.750008,8.1339083 11.9732214,7.99997956 11.3169706,7.99997956 C9.77679022,7.99997956 8.51786014,8.64283747 7.51339466,9.92855329 C6.50892918,11.227662 6,12.8883782 6,14.9374878 C6,17.133919 6.66964366,19.3705288 7.96875235,21.674103 C9.29464678,23.9776772 10.6205412,25.1428571 12.0000072,25.1428571 C12.441972,25.1428571 13.0312584,24.9955355 13.7678664,24.6874995 C14.4910816,24.3928562 15.1339395,24.2455346 15.6696544,24.2455346 C16.2187622,24.2455346 16.9017987,24.3794634 17.6919782,24.6741066 C18.4955506,24.9553569 19.1116228,25.1026785 19.5669805,25.1026785 C20.7053747,25.1026785 21.8571618,24.2321418 23.0089488,22.4776754 C23.7857355,21.3124954 24.3214504,20.1874941 24.6562722,19.1294571 L24.6562722,19.1294571 Z M19.620552,3.41961696 C19.620552,3.32586685 19.6071591,3.24550961 19.6071591,3.1517595 C19.5937662,3.07140226 19.5669805,2.97765215 19.5401947,2.85711629 C17.9866214,3.21872386 16.8616201,3.87497465 16.1919764,4.83926151 C15.5223328,5.80354837 15.1741181,6.95533546 15.1473323,8.2812299 C15.7767974,8.22765841 16.2321551,8.14730117 16.5401911,8.05355106 C17.0223346,7.89283658 17.504478,7.57140762 17.9866214,7.08926419 C18.5491221,6.52676352 18.9643012,5.91069136 19.2321586,5.2410477 C19.4866232,4.58479692 19.620552,3.96872476 19.620552,3.41961696 L19.620552,3.41961696 Z" id="" fill="#000000" sketch:type="MSShapeGroup"></path>
    </g>
</svg>