<?xml version="1.0" encoding="UTF-8" standalone="no"?>
<svg width="30px" height="30px" viewBox="0 0 30 30" version="1.1" xmlns="http://www.w3.org/2000/svg" xmlns:xlink="http://www.w3.org/1999/xlink" xmlns:sketch="http://www.bohemiancoding.com/sketch/ns">
    <!-- Generator: Sketch 3.3.2 (12043) - http://www.bohemiancoding.com/sketch -->
    <title>arrow-drop-left</title>
    <desc>Created with Sketch.</desc>
    <defs></defs>
    <g id="Page-1" stroke="none" stroke-width="1" fill="none" fill-rule="evenodd" sketch:type="MSPage">
        <g id="arrow-drop-down-copy" sketch:type="MSLayerGroup" transform="translate(14.000000, 15.000000) rotate(-270.000000) translate(-14.000000, -15.000000) translate(9.000000, 12.500000)" fill="#000000">
            <path d="M0,0 L5,5 L10,0 L0,0 Z" id="Shape" sketch:type="MSShapeGroup"></path>
        </g>
        <path d="M8,14.3333333 L6.2,14.3333333 L6.2,13.75 L3.8,13.75 L3.8,17.25 L6.2,17.25 L6.2,16.6666667 L8,16.6666667 L8,17.8333333 C8,18.5333333 7.52,19 6.8,19 L3.2,19 C2.48,19 2,18.5333333 2,17.8333333 L2,13.1666667 C2,12.4666667 2.48,12 3.2,12 L6.8,12 C7.52,12 8,12.4666667 8,13.1666667 L8,14.3333333 L8,14.3333333 Z" id="Path-Copy-10" fill="#FFFFFF" sketch:type="MSShapeGroup"></path>
    </g>
</svg>