<?xml version="1.0" encoding="UTF-8" standalone="no"?>
<svg width="30px" height="30px" viewBox="0 0 30 30" version="1.1" xmlns="http://www.w3.org/2000/svg" xmlns:xlink="http://www.w3.org/1999/xlink" xmlns:sketch="http://www.bohemiancoding.com/sketch/ns">
    <!-- Generator: Sketch 3.3.2 (12043) - http://www.bohemiancoding.com/sketch -->
    <title>attachment</title>
    <desc>Created with Sketch.</desc>
    <defs></defs>
    <g id="Page-1" stroke="none" stroke-width="1" fill="none" fill-rule="evenodd" sketch:type="MSPage">
        <g id="attachment" sketch:type="MSLayerGroup" transform="translate(15.359670, 15.347329) rotate(-226.000000) translate(-15.359670, -15.347329) translate(5.359670, 9.347329)" fill="#000000">
            <path d="M7.10542736e-15,6.5 C7.10542736e-15,3.5 2.5,1 5.5,1 L16,1 C18.2,1 20,2.8 20,5 C20,7.2 18.2,9 16,9 L7.5,9 C6.1,9 5,7.9 5,6.5 C5,5.1 6.1,4 7.5,4 L15,4 L15,5.5 L7.5,5.5 C6.9,5.5 6.5,5.9 6.5,6.5 C6.5,7.1 6.9,7.5 7.5,7.5 L16,7.5 C17.4,7.5 18.5,6.4 18.5,5 C18.5,3.6 17.4,2.5 16,2.5 L5.5,2.5 C3.3,2.5 1.5,4.3 1.5,6.5 C1.5,8.7 3.3,10.5 5.5,10.5 L15,10.5 L15,12 L5.5,12 C2.5,12 7.10542736e-15,9.5 7.10542736e-15,6.5 Z" id="Shape" sketch:type="MSShapeGroup"></path>
        </g>
    </g>
</svg>