<?xml version="1.0" encoding="UTF-8" standalone="no"?>
<svg width="30px" height="30px" viewBox="0 0 30 30" version="1.1" xmlns="http://www.w3.org/2000/svg" xmlns:xlink="http://www.w3.org/1999/xlink" xmlns:sketch="http://www.bohemiancoding.com/sketch/ns">
    <!-- Generator: Sketch 3.3.2 (12043) - http://www.bohemiancoding.com/sketch -->
    <title>auto-fix</title>
    <desc>Created with Sketch.</desc>
    <defs></defs>
    <g id="Page-1" stroke="none" stroke-width="1" fill="none" fill-rule="evenodd" sketch:type="MSPage">
        <g id="auto-fix" sketch:type="MSLayerGroup" transform="translate(4.000000, 4.000000)">
            <path d="M5.5,3.6 L8,5 L6.6,2.5 L8,0 L5.5,1.4 L3,0 L4.4,2.5 L3,5 L5.5,3.6 Z" id="Shape" fill="#000000" sketch:type="MSShapeGroup"></path>
            <path d="M19.5,15.4 L17,14 L18.4,16.5 L17,19 L19.5,17.6 L22,19 L20.6,16.5 L22,14 L19.5,15.4 Z" id="Shape" fill="#000000" sketch:type="MSShapeGroup"></path>
            <path d="M22,0 L19.5,1.4 L17,0 L18.4,2.5 L17,5 L19.5,3.6 L22,5 L20.6,2.5 L22,0 Z" id="Shape" fill="#000000" sketch:type="MSShapeGroup"></path>
            <path d="M13.4,6.3 C13,5.9 12.4,5.9 12,6.3 L0.3,18 C-0.1,18.4 -0.1,19 0.3,19.4 L2.6,21.7 C3,22.1 3.6,22.1 4,21.7 L15.7,10 C16.1,9.6 16.1,9 15.7,8.6 L13.4,6.3 L13.4,6.3 Z" id="Shape" stroke="#000000" stroke-width="2" sketch:type="MSShapeGroup"></path>
        </g>
    </g>
</svg>