<?xml version="1.0" encoding="UTF-8" standalone="no"?>
<svg width="30px" height="30px" viewBox="0 0 30 30" version="1.1" xmlns="http://www.w3.org/2000/svg" xmlns:xlink="http://www.w3.org/1999/xlink" xmlns:sketch="http://www.bohemiancoding.com/sketch/ns">
    <!-- Generator: Sketch 3.3.2 (12043) - http://www.bohemiancoding.com/sketch -->
    <title>block</title>
    <desc>Created with Sketch.</desc>
    <defs></defs>
    <g id="Page-1" stroke="none" stroke-width="1" fill="none" fill-rule="evenodd" sketch:type="MSPage">
        <g id="block" sketch:type="MSLayerGroup" transform="translate(5.000000, 5.000000)" fill="#000000">
            <path d="M10,0 C4.5,0 0,4.5 0,10 C0,15.5 4.5,20 10,20 C15.5,20 20,15.5 20,10 C20,4.5 15.5,0 10,0 L10,0 Z M17.9,10 C17.9,5.6 14.3,2 9.9,2 C8.1,2 6.4,2.6 5,3.7 L16.2,14.9 C17.3,13.5 17.9,11.8 17.9,10 L17.9,10 Z M15,16.3 L3.8,5.1 C2.7,6.5 2.1,8.2 2.1,10 C2.1,14.4 5.7,18 10.1,18 C11.9,18 13.6,17.4 15,16.3 Z" id="Shape" sketch:type="MSShapeGroup"></path>
        </g>
    </g>
</svg>