<?xml version="1.0" encoding="UTF-8" standalone="no"?>
<svg width="30px" height="30px" viewBox="0 0 30 30" version="1.1" xmlns="http://www.w3.org/2000/svg" xmlns:xlink="http://www.w3.org/1999/xlink" xmlns:sketch="http://www.bohemiancoding.com/sketch/ns">
    <!-- Generator: Sketch 3.3.2 (12043) - http://www.bohemiancoding.com/sketch -->
    <title>calendar-month</title>
    <desc>Created with Sketch.</desc>
    <defs></defs>
    <g id="Page-1" stroke="none" stroke-width="1" fill="none" fill-rule="evenodd" sketch:type="MSPage">
        <g id="today-copy" sketch:type="MSLayerGroup" transform="translate(6.000000, 5.000000)" fill="#000000">
            <path d="M16,2 L15,2 L15,0 L13,0 L13,2 L5,2 L5,0 L3,0 L3,2 L2,2 C0.9,2 0,2.9 0,4 L0,18 C0,19.1 0.9,20 2,20 L16,20 C17.1,20 18,19.1 18,18 L18,4 C18,2.9 17.1,2 16,2 L16,2 Z M16,18 L2,18 L2,7 L16,7 L16,18 L16,18 Z" id="Shape" sketch:type="MSShapeGroup"></path>
        </g>
        <path d="M10.5,15.5 L10.5,16.5" id="Line" stroke="#000000" stroke-linecap="square" sketch:type="MSShapeGroup"></path>
        <path d="M10.5,19.5 L10.5,20.5" id="Line-Copy-12" stroke="#000000" stroke-linecap="square" sketch:type="MSShapeGroup"></path>
        <path d="M13.5,15.5 L13.5,16.5" id="Line-Copy-10" stroke="#000000" stroke-linecap="square" sketch:type="MSShapeGroup"></path>
        <path d="M13.5,19.5 L13.5,20.5" id="Line-Copy-13" stroke="#000000" stroke-linecap="square" sketch:type="MSShapeGroup"></path>
        <path d="M16.5,15.5 L16.5,16.5" id="Line-Copy-11" stroke="#000000" stroke-linecap="square" sketch:type="MSShapeGroup"></path>
        <path d="M19.5,15.5 L19.5,16.5" id="Line-Copy-15" stroke="#000000" stroke-linecap="square" sketch:type="MSShapeGroup"></path>
        <path d="M16.5,19.5 L16.5,20.5" id="Line-Copy-14" stroke="#000000" stroke-linecap="square" sketch:type="MSShapeGroup"></path>
        <path d="M19.5,19.5 L19.5,20.5" id="Line-Copy-16" stroke="#000000" stroke-linecap="square" sketch:type="MSShapeGroup"></path>
    </g>
</svg>