<?xml version="1.0" encoding="UTF-8" standalone="no"?>
<svg width="30px" height="30px" viewBox="0 0 30 30" version="1.1" xmlns="http://www.w3.org/2000/svg" xmlns:xlink="http://www.w3.org/1999/xlink" xmlns:sketch="http://www.bohemiancoding.com/sketch/ns">
    <!-- Generator: Sketch 3.3.2 (12043) - http://www.bohemiancoding.com/sketch -->
    <title>command</title>
    <desc>Created with Sketch.</desc>
    <defs></defs>
    <g id="Page-1" stroke="none" stroke-width="1" fill="none" fill-rule="evenodd" sketch:type="MSPage">
        <path d="M18.6875,14.4375 L18.6875,16.5625 L18.6875,16.5625 L19.75,16.5625 L19.75,16.6001597 C19.9235078,16.5753414 20.1008793,16.5625 20.28125,16.5625 C22.335059,16.5625 24,18.227441 24,20.28125 C24,22.335059 22.335059,24 20.28125,24 C18.227441,24 16.5625,22.335059 16.5625,20.28125 C16.5625,20.1008793 16.5753414,19.9235078 16.6001597,19.75 L16.5625,19.75 L16.5625,18.6875 L14.4375,18.6875 L14.4375,19.75 L14.3998403,19.75 C14.4246586,19.9235078 14.4375,20.1008793 14.4375,20.28125 C14.4375,22.335059 12.772559,24 10.71875,24 C8.66494098,24 7,22.335059 7,20.28125 C7,18.227441 8.66494098,16.5625 10.71875,16.5625 C10.8991207,16.5625 11.0764922,16.5753414 11.25,16.6001597 L11.25,16.5625 L12.3125,16.5625 L12.3125,14.4375 L11.25,14.4375 L11.25,14.3998403 C11.0764922,14.4246586 10.8991207,14.4375 10.71875,14.4375 C8.66494098,14.4375 7,12.772559 7,10.71875 C7,8.66494098 8.66494098,7 10.71875,7 C12.772559,7 14.4375,8.66494098 14.4375,10.71875 C14.4375,10.8991207 14.4246586,11.0764922 14.3998403,11.25 L14.4375,11.25 L14.4375,12.3125 L14.4375,12.3125 L16.5625,12.3125 L16.5625,12.3125 L16.5625,11.25 L16.6001597,11.25 C16.5753414,11.0764922 16.5625,10.8991207 16.5625,10.71875 C16.5625,8.66494098 18.227441,7 20.28125,7 C22.335059,7 24,8.66494098 24,10.71875 C24,12.772559 22.335059,14.4375 20.28125,14.4375 C20.1008793,14.4375 19.9235078,14.4246586 19.75,14.3998403 L19.75,14.4375 L18.6875,14.4375 Z M10.71875,12.3125 C11.5989539,12.3125 12.3125,11.5989539 12.3125,10.71875 C12.3125,9.83854614 11.5989539,9.125 10.71875,9.125 C9.83854614,9.125 9.125,9.83854614 9.125,10.71875 C9.125,11.5989539 9.83854614,12.3125 10.71875,12.3125 Z M20.28125,12.3125 C21.1614539,12.3125 21.875,11.5989539 21.875,10.71875 C21.875,9.83854614 21.1614539,9.125 20.28125,9.125 C19.4010461,9.125 18.6875,9.83854614 18.6875,10.71875 C18.6875,11.5989539 19.4010461,12.3125 20.28125,12.3125 Z M10.71875,21.875 C11.5989539,21.875 12.3125,21.1614539 12.3125,20.28125 C12.3125,19.4010461 11.5989539,18.6875 10.71875,18.6875 C9.83854614,18.6875 9.125,19.4010461 9.125,20.28125 C9.125,21.1614539 9.83854614,21.875 10.71875,21.875 Z M20.28125,21.875 C21.1614539,21.875 21.875,21.1614539 21.875,20.28125 C21.875,19.4010461 21.1614539,18.6875 20.28125,18.6875 C19.4010461,18.6875 18.6875,19.4010461 18.6875,20.28125 C18.6875,21.1614539 19.4010461,21.875 20.28125,21.875 Z M14.4375,14.4375 L14.4375,16.5625 L16.5625,16.5625 L16.5625,14.4375 L14.4375,14.4375 Z" id="⌘" fill="#000000" sketch:type="MSShapeGroup"></path>
    </g>
</svg>