<?xml version="1.0" encoding="UTF-8" standalone="no"?>
<svg width="30px" height="30px" viewBox="0 0 30 30" version="1.1" xmlns="http://www.w3.org/2000/svg" xmlns:xlink="http://www.w3.org/1999/xlink" xmlns:sketch="http://www.bohemiancoding.com/sketch/ns">
    <!-- Generator: Sketch 3.3.2 (12043) - http://www.bohemiancoding.com/sketch -->
    <title>dashboard</title>
    <desc>Created with Sketch.</desc>
    <defs></defs>
    <g id="Page-1" stroke="none" stroke-width="1" fill="none" fill-rule="evenodd" sketch:type="MSPage">
        <path d="M9.28571939,17.0000119 C9.28571939,17.7924236 8.64955792,18.4285851 7.85714626,18.4285851 C7.0647346,18.4285851 6.42857313,17.7924236 6.42857313,17.0000119 C6.42857313,16.2076003 7.0647346,15.5714388 7.85714626,15.5714388 C8.64955792,15.5714388 9.28571939,16.2076003 9.28571939,17.0000119 L9.28571939,17.0000119 Z M11.4285791,12.000006 C11.4285791,12.7924176 10.7924176,13.4285791 10.000006,13.4285791 C9.2075943,13.4285791 8.57143283,12.7924176 8.57143283,12.000006 C8.57143283,11.2075943 9.2075943,10.5714328 10.000006,10.5714328 C10.7924176,10.5714328 11.4285791,11.2075943 11.4285791,12.000006 L11.4285791,12.000006 Z M16.2053705,17.3683159 C16.9308178,17.8705487 17.3102825,18.7857283 17.0759073,19.6897473 C16.7745676,20.8281415 15.6026912,21.5201066 14.4531363,21.218767 C13.3147421,20.9174273 12.6227769,19.7455509 12.9241166,18.595996 C13.1696526,17.691977 13.9397428,17.078137 14.8214403,17.0111726 L15.9486738,12.7477747 C16.0491203,12.36831 16.4397458,12.1339347 16.8192105,12.2343812 C17.1986753,12.3348278 17.4218898,12.7254533 17.332604,13.104918 L16.2053705,17.3683159 Z M23.5714507,17.0000119 C23.5714507,17.7924236 22.9352892,18.4285851 22.1428776,18.4285851 C21.3504659,18.4285851 20.7143044,17.7924236 20.7143044,17.0000119 C20.7143044,16.2076003 21.3504659,15.5714388 22.1428776,15.5714388 C22.9352892,15.5714388 23.5714507,16.2076003 23.5714507,17.0000119 L23.5714507,17.0000119 Z M16.4285851,9.85714626 C16.4285851,10.6495579 15.7924236,11.2857194 15.0000119,11.2857194 C14.2076003,11.2857194 13.5714388,10.6495579 13.5714388,9.85714626 C13.5714388,9.0647346 14.2076003,8.42857313 15.0000119,8.42857313 C15.7924236,8.42857313 16.4285851,9.0647346 16.4285851,9.85714626 L16.4285851,9.85714626 Z M21.428591,12.000006 C21.428591,12.7924176 20.7924295,13.4285791 20.0000179,13.4285791 C19.2076062,13.4285791 18.5714447,12.7924176 18.5714447,12.000006 C18.5714447,11.2075943 19.2076062,10.5714328 20.0000179,10.5714328 C20.7924295,10.5714328 21.428591,11.2075943 21.428591,12.000006 L21.428591,12.000006 Z M25.0000238,17.0000119 C25.0000238,11.4866125 20.5134114,7 15.0000119,7 C9.48661249,7 5,11.4866125 5,17.0000119 C5,18.9196571 5.54687565,20.7834986 6.57366259,22.3906433 C6.70759132,22.5915364 6.93080587,22.7143044 7.17634188,22.7143044 L22.823682,22.7143044 C23.069218,22.7143044 23.2924325,22.5915364 23.4263613,22.3906433 C24.4531482,20.7723378 25.0000238,18.9196571 25.0000238,17.0000119 L25.0000238,17.0000119 Z" id="" fill="#000000" sketch:type="MSShapeGroup"></path>
    </g>
</svg>