<?xml version="1.0" encoding="UTF-8" standalone="no"?>
<svg width="30px" height="30px" viewBox="0 0 30 30" version="1.1" xmlns="http://www.w3.org/2000/svg" xmlns:xlink="http://www.w3.org/1999/xlink" xmlns:sketch="http://www.bohemiancoding.com/sketch/ns">
    <!-- Generator: Sketch 3.3.2 (12043) - http://www.bohemiancoding.com/sketch -->
    <title>dribbble</title>
    <desc>Created with Sketch.</desc>
    <defs></defs>
    <g id="Page-1" stroke="none" stroke-width="1" fill="none" fill-rule="evenodd" sketch:type="MSPage">
        <path d="M18.7143021,22.946426 C17.6562651,23.3883908 16.504478,23.6428554 15.2857265,23.6428554 C13.1562597,23.6428554 11.2142931,22.8794616 9.68750559,21.6339244 C9.68750559,21.6339244 9.80804145,21.7142816 9.88839868,21.781246 C11.5759007,18.1115988 16.7857283,16.290168 16.7857283,16.290168 C16.7991212,16.290168 16.825907,16.2767751 16.8392998,16.2767751 C18.0714442,19.4910647 18.5803733,22.1696393 18.7143021,22.946426 L18.7143021,22.946426 Z M16.2366205,14.816952 C16.1294776,14.8571306 16.0089417,14.8839163 15.8884058,14.924095 C15.8884058,14.924095 11.1473288,16.4508825 8.75000447,20.723209 C7.35714567,19.1696357 6.50000179,17.1071333 6.50000179,14.8571306 C6.50000179,14.7633805 6.50000179,14.6696304 6.51339466,14.5758803 C6.66071627,14.5758803 11.0000072,14.6830232 15.5267983,13.3303431 C15.7812629,13.8258794 16.0223346,14.3214157 16.2366205,14.816952 L16.2366205,14.816952 Z M14.8035831,11.9776629 C10.5848281,13.0892713 6.91518085,13.0490927 6.68750201,13.0490927 C7.26339556,10.3303395 9.0848263,8.06694393 11.5357221,6.91515684 C11.6562579,7.07587132 13.2767956,9.27230251 14.8035831,11.9776629 L14.8035831,11.9776629 Z M23.9643083,16.2499894 C23.5625221,18.7008852 22.1696633,20.8169591 20.200911,22.1428536 C20.1071609,21.6205315 19.6384103,19.035707 18.4866232,15.8615961 C21.3259123,15.4196313 23.7768081,16.1964179 23.9643083,16.2499894 L23.9643083,16.2499894 Z M13.1830455,6.32587043 C13.1696526,6.32587043 13.1562597,6.3392633 13.1562597,6.3392633 C13.1696526,6.32587043 13.1696526,6.32587043 13.1830455,6.32587043 L13.1830455,6.32587043 Z M21.0848406,8.26783703 C21.0580549,8.30801565 19.8125177,10.2098036 16.504478,11.441948 C15.0044762,8.68301609 13.3437599,6.49997778 13.2098312,6.32587043 C13.8794749,6.16515595 14.5759043,6.07140584 15.2857265,6.07140584 C17.5089435,6.07140584 19.5446602,6.90176397 21.0848406,8.26783703 L21.0848406,8.26783703 Z M24.0714513,14.7633805 C23.9643083,14.7499876 20.9776976,14.0937368 17.9509083,14.4821301 C17.8839439,14.3348085 17.8303724,14.1740941 17.7634081,14.0267725 C17.5759078,13.5982005 17.3750148,13.1696286 17.1741217,12.7544495 C20.6428758,11.334805 22.0491275,9.29908826 22.0759132,9.27230251 C23.3080575,10.7723043 24.0446656,12.6874852 24.0714513,14.7633805 L24.0714513,14.7633805 Z M25.5714531,14.8571306 C25.5714531,9.1785524 20.9643047,4.57140405 15.2857265,4.57140405 C9.60714835,4.57140405 5,9.1785524 5,14.8571306 C5,20.5357088 9.60714835,25.1428571 15.2857265,25.1428571 C20.9643047,25.1428571 25.5714531,20.5357088 25.5714531,14.8571306 L25.5714531,14.8571306 Z" id="" fill="#000000" sketch:type="MSShapeGroup"></path>
    </g>
</svg>