<?xml version="1.0" encoding="UTF-8" standalone="no"?>
<svg width="30px" height="30px" viewBox="0 0 30 30" version="1.1" xmlns="http://www.w3.org/2000/svg" xmlns:xlink="http://www.w3.org/1999/xlink" xmlns:sketch="http://www.bohemiancoding.com/sketch/ns">
    <!-- Generator: Sketch 3.3.2 (12043) - http://www.bohemiancoding.com/sketch -->
    <title>dropbox</title>
    <desc>Created with Sketch.</desc>
    <defs></defs>
    <g id="Page-1" stroke="none" stroke-width="1" fill="none" fill-rule="evenodd" sketch:type="MSPage">
        <path d="M8.65393017,12.6672499 L4.4999845,15.9977803 L10.5219767,19.9182201 L14.7250815,16.4156328 L8.65393017,12.6672499 Z M20.7716533,19.4880778 L18.9650557,20.6678967 L14.7496611,17.1775991 L14.7496611,17.1530196 L14.7373713,17.1653094 L14.7250815,17.1530196 L14.7250815,17.1775991 L10.5219767,20.6678967 L8.71537907,19.4880778 L8.71537907,20.815374 L14.7250815,24.4162796 L14.7250815,24.4285694 L14.7373713,24.4162796 L14.7496611,24.4285694 L14.7496611,24.4162796 L20.7716533,20.815374 L20.7716533,19.4880778 Z M10.5219767,5.42856938 L4.4999845,9.34900923 L8.65393017,12.6672499 L14.7250815,8.93115671 L10.5219767,5.42856938 Z M20.7962329,12.6672499 L14.7250815,16.4156328 L18.9404761,19.9182201 L24.9501786,15.9977803 L20.7962329,12.6672499 Z M18.9404761,5.42856938 L14.7250815,8.93115671 L20.7962329,12.6672499 L24.9501786,9.34900923 L18.9404761,5.42856938 Z" id="" fill="#000000" sketch:type="MSShapeGroup"></path>
    </g>
</svg>