<?xml version="1.0" encoding="UTF-8" standalone="no"?>
<svg width="30px" height="30px" viewBox="0 0 30 30" version="1.1" xmlns="http://www.w3.org/2000/svg" xmlns:xlink="http://www.w3.org/1999/xlink" xmlns:sketch="http://www.bohemiancoding.com/sketch/ns">
    <!-- Generator: Sketch 3.3.2 (12043) - http://www.bohemiancoding.com/sketch -->
    <title>editor-underline</title>
    <desc>Created with Sketch.</desc>
    <defs></defs>
    <g id="Page-1" stroke="none" stroke-width="1" fill="none" fill-rule="evenodd" sketch:type="MSPage">
        <path d="M6.53571492,7.34596467 C6.33482183,7.33480395 6.16741091,7.33480395 6.03348218,7.30132176 L6,6.31917774 C6.14508946,6.30801701 6.29017892,6.30801701 6.4464291,6.30801701 C6.83705457,6.30801701 7.26116222,6.31917774 7.69643059,6.35265992 C8.74553899,6.40846356 9.37053973,6.43078501 9.54911137,6.43078501 C10.1852728,6.43078501 10.8102736,6.41962428 11.4241136,6.39730283 C12.0267929,6.37498137 12.5736686,6.35265992 13.0535798,6.34149919 C13.5223304,6.34149919 13.8459915,6.33033846 14.0134024,6.31917774 L14.0022417,6.47542792 L14.0245631,7.18971449 L14.0245631,7.29016104 C13.578134,7.3571254 13.1205442,7.39060758 12.6406329,7.39060758 C12.1942038,7.39060758 11.9040249,7.4798934 11.7589354,7.66962577 C11.6584889,7.78123305 11.613846,8.27230506 11.613846,9.14284182 C11.613846,9.41069928 11.6250067,9.6227531 11.6250067,9.79016402 L11.6361674,12.3459706 L11.7924176,15.4709744 C11.8370605,16.3749933 12.0156322,17.122762 12.3616147,17.7254413 C12.6183115,18.1607097 12.9754547,18.5066923 13.4330446,18.7522283 C14.1026882,19.1093716 14.7611712,19.2767825 15.4084934,19.2767825 C16.1674228,19.2767825 16.8817094,19.1763359 17.5401923,18.9642821 C17.9308178,18.8415141 18.2991218,18.6629425 18.6451044,18.395085 C18.9910869,18.1383883 19.2366229,17.904013 19.3705517,17.6807984 C19.6607306,17.2343693 19.8504629,16.7991009 19.9620702,16.4084755 C20.1183204,15.8615998 20.1964455,15.0133845 20.1964455,13.8526689 C20.1964455,11.8548986 20.051356,11.799095 19.8839451,9.27677055 L19.8393022,8.61828762 C19.80582,8.13837633 19.7276949,7.80355451 19.5714447,7.63614359 C19.3259087,7.37944686 19.0357298,7.24551813 18.7120687,7.25667885 L17.595996,7.27900031 L17.4397458,7.24551813 L17.4620672,6.28569555 L18.3995684,6.28569555 L20.6875175,6.39730283 C21.446447,6.43078501 22.1718943,6.36382065 22.8750201,6.28569555 L23.0759132,6.30801701 C23.1205561,6.5870352 23.1428776,6.77676757 23.1428776,6.87721412 C23.1428776,6.97766066 23.1205561,7.08926794 23.0982347,7.22319667 C22.796895,7.30132176 22.4843947,7.3571254 22.1607336,7.36828613 C21.6361794,7.44641122 21.3348397,7.50221486 21.2790361,7.5580185 C21.1785895,7.65846505 21.1116252,7.80355451 21.1116252,8.01560833 C21.1116252,8.16069779 21.1339466,8.38391234 21.1451073,8.66293053 C21.1451073,8.66293053 21.2343932,8.86382363 21.3906433,13.0825787 C21.446447,14.7678485 21.3348397,15.9062427 21.2232324,16.4754398 C21.1116252,17.0446369 20.955375,17.5022268 20.7656426,17.8370486 C20.4754637,18.3281206 20.051356,18.7857105 19.5156411,19.2098181 C18.9687655,19.622765 18.2991218,19.9575869 17.4843887,20.2031229 C16.6696556,20.4486589 15.7209937,20.5714269 14.6384032,20.5714269 C13.4107231,20.5714269 12.350454,20.404016 11.4687565,20.0580334 C10.587059,19.7120508 9.91741538,19.254461 9.47098628,18.6964246 C9.02455718,18.1383883 8.7120568,17.412941 8.54464589,16.5200828 C8.42187789,15.9062427 8.36607425,15.0245453 8.36607425,13.8749903 L8.36607425,10.158468 C8.36607425,8.75221635 8.29910988,7.95980469 8.17634188,7.78123305 C7.99777024,7.52453632 7.45089459,7.36828613 6.53571492,7.34596467 L6.53571492,7.34596467 Z M23.1428776,23.0714298 C23.1428776,23.2723229 22.9866274,23.4285731 22.7857343,23.4285731 L6.35714328,23.4285731 C6.15625019,23.4285731 6,23.2723229 6,23.0714298 L6,22.3571433 C6,22.1562502 6.15625019,22 6.35714328,22 L22.7857343,22 C22.9866274,22 23.1428776,22.1562502 23.1428776,22.3571433 L23.1428776,23.0714298 Z" id="ïƒ" fill="#000000" sketch:type="MSShapeGroup"></path>
    </g>
</svg>