<?xml version="1.0" encoding="UTF-8" standalone="no"?>
<svg width="30px" height="30px" viewBox="0 0 30 30" version="1.1" xmlns="http://www.w3.org/2000/svg" xmlns:xlink="http://www.w3.org/1999/xlink" xmlns:sketch="http://www.bohemiancoding.com/sketch/ns">
    <!-- Generator: Sketch 3.3.2 (12043) - http://www.bohemiancoding.com/sketch -->
    <title>editor-italic</title>
    <desc>Created with Sketch.</desc>
    <defs></defs>
    <g id="Page-1" stroke="none" stroke-width="1" fill="none" fill-rule="evenodd" sketch:type="MSPage">
        <path d="M9,23.4062517 C9.16741091,23.3950909 9.53571492,23.3616088 10.0937513,23.3058051 C10.9531273,23.22768 11.6004495,23.1718764 12.0357179,23.1830371 L14.245542,23.2053586 C15.2053645,23.3058051 15.7522402,23.3727695 15.8638475,23.3950909 C16.0089369,23.4174124 16.1205442,23.4285731 16.1763478,23.4285731 C16.2209908,23.4285731 16.3772409,23.4285731 16.6450984,23.4062517 C16.700902,23.3950909 16.7901879,23.3950909 16.9017951,23.3950909 C16.946438,23.1830371 16.9799202,23.0379477 17.0022417,22.9375011 C17.0357239,22.7700902 17.069206,22.5468757 17.0803668,22.2901789 C16.6674199,22.2232146 16.4218838,22.1897324 16.3437588,22.1785716 C15.9419726,22.1339287 15.4955435,22.0558036 15.0156322,21.9441964 C14.9933107,21.8102676 14.98215,21.7098211 15.0044714,21.6428567 L15.1384002,21.140624 L15.6183115,18.517853 L16.0424191,16.754458 L16.7232235,13.2834718 C16.8906344,12.4910601 17.1361704,11.3526659 17.4598315,9.86828911 C17.482153,9.63391383 17.5267959,9.32141346 17.604921,8.95310945 C17.6942068,8.51784107 17.7834926,8.19417997 17.8727784,7.97096542 C18.1741181,7.84819742 18.5535828,7.73659014 19.0000119,7.62498286 C19.446441,7.52453632 19.8593879,7.40176831 20.2165312,7.27900031 C20.2834956,7.04462503 20.3281385,6.85489266 20.3616207,6.7098032 C20.3839421,6.5870352 20.4062636,6.45310647 20.4285851,6.28569555 C20.2723349,6.29685628 19.8817094,6.31917774 19.2678694,6.36382065 C18.1629574,6.43078501 17.3705457,6.46426719 16.8794737,6.46426719 C16.7678664,6.46426719 16.5000089,6.46426719 16.0647406,6.44194574 L12.5267899,6.28569555 L12.3147361,7.43525049 C12.4151826,7.45757195 12.5602721,7.46873268 12.7388437,7.4798934 C13.4977732,7.52453632 14.0334881,7.62498286 14.3459885,7.79239378 C14.3459885,7.99328687 14.3571492,8.12721561 14.3459885,8.21650143 L14.2567027,8.77453781 L14.0111667,10.281236 L13.832595,10.9843619 L13.5089339,12.7365961 C13.4977732,12.7923997 13.1964336,13.6629365 12.8616117,15.4151707 L12.727683,16.1294573 L12.1026823,19.1205323 L11.8013426,20.6718734 C11.7120568,21.1517847 11.5558066,21.5312494 11.3437528,21.7991069 C11.0535739,21.9441964 10.6294662,22.0892858 10.0491084,22.2343753 C9.65848293,22.3348218 9.36830401,22.4017862 9.18973237,22.4575898 L9,23.4062517 Z" id="" fill="#000000" sketch:type="MSShapeGroup"></path>
    </g>
</svg>