<?xml version="1.0" encoding="UTF-8" standalone="no"?>
<svg width="30px" height="30px" viewBox="0 0 30 30" version="1.1" xmlns="http://www.w3.org/2000/svg" xmlns:xlink="http://www.w3.org/1999/xlink" xmlns:sketch="http://www.bohemiancoding.com/sketch/ns">
    <!-- Generator: Sketch 3.3.2 (12043) - http://www.bohemiancoding.com/sketch -->
    <title>editor-negation</title>
    <desc>Created with Sketch.</desc>
    <defs></defs>
    <g id="Page-1" stroke="none" stroke-width="1" fill="none" fill-rule="evenodd" sketch:type="MSPage">
        <path d="M24.6428806,14.8571343 L5.35714328,14.8571343 C5.15625019,14.8571343 5,15.0133845 5,15.2142776 L5,15.9285642 C5,16.1294573 5.15625019,16.2857075 5.35714328,16.2857075 L24.6428806,16.2857075 C24.8437737,16.2857075 25.0000238,16.1294573 25.0000238,15.9285642 L25.0000238,15.2142776 C25.0000238,15.0133845 24.8437737,14.8571343 24.6428806,14.8571343 L24.6428806,14.8571343 Z M10.3906314,14.1428478 L18.683052,14.1428478 C18.3817124,13.9419547 18.0245691,13.7522223 17.6227829,13.5624899 C16.8638534,13.2276681 16.227692,12.9821321 15.691977,12.8258819 C14.1071537,12.3682921 13.069206,11.8883808 12.578134,11.3861481 C12.087062,10.8839153 11.841526,10.3705219 11.841526,9.8236462 C11.841526,9.176324 12.087062,8.62944835 12.5892948,8.19417997 C13.0915275,7.75891159 13.7723319,7.53569704 14.6205472,7.53569704 C15.5134054,7.53569704 16.305817,7.87051887 16.9643,8.55132325 C17.3437647,8.95310945 17.7343902,9.71203892 18.1138549,10.8392724 L18.2701051,10.8615939 L19.2076062,10.9285582 L19.341535,10.895076 C19.3750171,10.7165044 19.3973386,10.5490935 19.3973386,10.3928433 C19.3973386,9.91293202 19.341535,9.23212764 19.2410884,8.35043016 C19.1629633,7.77007232 19.0848382,7.32364322 19.0067131,7.0334643 C18.1808193,6.76560684 17.5223364,6.5870352 17.0312643,6.49774938 C16.2053705,6.36382065 15.5915305,6.28569555 15.1674228,6.28569555 C13.236617,6.28569555 11.7745616,6.75444611 10.7812569,7.70310796 C9.78795214,8.6517698 9.28571939,9.79016402 9.28571939,11.1517728 C9.28571939,11.8214164 9.46429104,12.5245423 9.82143432,13.2499896 C9.98884523,13.5736507 10.1785776,13.8749903 10.3906314,14.1428478 L10.3906314,14.1428478 Z M16.0491203,16.999994 C16.8192105,17.3124944 17.332604,17.5803519 17.57814,17.7924057 C18.1808193,18.3392814 18.4821589,18.9196392 18.4821589,19.5446399 C18.4821589,20.0580334 18.3035873,20.5379447 17.9576047,20.9843738 C17.6227829,21.4308029 17.1651931,21.754464 16.595996,21.9441964 C16.0379596,22.1450895 15.5134054,22.245536 15.0446548,22.245536 C14.5201006,22.245536 14.0178679,22.1674109 13.5714388,22 C13.113849,21.8437498 12.7232235,21.631696 12.3995624,21.3638385 C12.0759013,21.0959811 11.7745616,20.7499985 11.5067042,20.3147301 C11.3839362,20.113837 11.1942038,19.5446399 10.7812569,18.5959781 L9.64286268,18.6182995 L9.64286268,19.1093716 C9.64286268,19.3325861 9.59821977,19.7232116 9.62054122,20.281248 C9.66518413,21.3526778 9.64286268,21.9330356 9.64286268,22.0223215 L9.64286268,22.1674109 C9.64286268,22.2901789 9.68750559,22.368304 9.7321485,22.4129469 C9.84375577,22.5022327 10.1004525,22.6026793 10.5357209,22.7254473 L12.0982227,23.1718764 C12.9241166,23.4062517 13.6607246,23.4285731 14.2745646,23.4285731 C15.200905,23.4285731 15.9486738,23.350448 16.5401923,23.1941979 C17.1317109,23.0491084 17.6897473,22.7924117 18.2477836,22.4575898 C18.7946593,22.1116073 19.1964455,21.8102676 19.464303,21.5535709 C19.832607,21.1852669 20.0893037,20.8058021 20.2567146,20.3928552 C20.569215,19.622765 20.7143044,18.8303534 20.7143044,18.026781 C20.7143044,17.658477 20.691983,17.3124944 20.6361794,16.999994 L16.0491203,16.999994 Z" id="" fill="#000000" sketch:type="MSShapeGroup"></path>
    </g>
</svg>