<?xml version="1.0" encoding="UTF-8" standalone="no"?>
<svg width="30px" height="30px" viewBox="0 0 30 30" version="1.1" xmlns="http://www.w3.org/2000/svg" xmlns:xlink="http://www.w3.org/1999/xlink" xmlns:sketch="http://www.bohemiancoding.com/sketch/ns">
    <!-- Generator: Sketch 3.3.2 (12043) - http://www.bohemiancoding.com/sketch -->
    <title>editor-headline</title>
    <desc>Created with Sketch.</desc>
    <defs></defs>
    <g id="Page-1" stroke="none" stroke-width="1" fill="none" fill-rule="evenodd" sketch:type="MSPage">
        <path d="M21.2246358,21.1174302 C21.2246358,21.2905624 21.2376205,21.4333943 21.2635904,21.5459302 C21.2895602,21.6584661 21.358812,21.7580156 21.4713479,21.8445817 C21.5838838,21.9311478 21.7483569,22.0047279 21.9647722,22.0653241 C22.1811874,22.1259204 22.4711794,22.1821875 22.834757,22.2341272 C23.0078891,22.2687536 23.0944539,22.4159137 23.0944539,22.675612 C23.0944539,22.7275516 23.0901257,22.80546 23.0814691,22.9093393 C23.0728125,23.0132186 23.0598278,23.0997833 23.0425145,23.1690362 C22.4884916,23.1344098 21.899851,23.1041121 21.2765752,23.0781423 C20.6532994,23.0521725 20.0992847,23.0391877 19.6145147,23.0391877 C19.1124314,23.0391877 18.545432,23.0521725 17.9134996,23.0781423 C17.2815671,23.1041121 16.6885983,23.1344098 16.1345754,23.1690362 C16.099949,23.0997833 16.082636,23.0132186 16.082636,22.9093393 L16.082636,22.675612 C16.082636,22.3986005 16.1692008,22.2514404 16.342333,22.2341272 C16.7059105,22.1821875 16.9959026,22.1259204 17.2123178,22.0653241 C17.428733,22.0047279 17.5888778,21.9311478 17.6927572,21.8445817 C17.7966365,21.7580156 17.8658883,21.6584661 17.9005147,21.5459302 C17.9351412,21.4333943 17.9524541,21.2905624 17.9524541,21.1174302 L17.9524541,15.0145517 L10.9406362,15.0145517 L10.9406362,21.1174302 C10.9406362,21.2905624 10.9536209,21.4333943 10.9795907,21.5459302 C11.0055606,21.6584661 11.0748124,21.7580156 11.1873483,21.8445817 C11.2998842,21.9311478 11.4643573,22.0047279 11.6807725,22.0653241 C11.8971877,22.1259204 12.1871798,22.1821875 12.5507573,22.2341272 C12.7238895,22.2687536 12.8104543,22.4159137 12.8104543,22.675612 C12.8104543,22.7275516 12.8061261,22.80546 12.7974694,22.9093393 C12.7888128,23.0132186 12.7758281,23.0997833 12.7585149,23.1690362 C12.204492,23.1344098 11.6071949,23.1041121 10.9666059,23.0781423 C10.3260168,23.0521725 9.76334572,23.0391877 9.27857563,23.0391877 C8.79380555,23.0391877 8.23979091,23.0521725 7.61651509,23.0781423 C6.99323927,23.1041121 6.40459871,23.1344098 5.85057576,23.1690362 C5.81594932,23.0997833 5.79863636,23.0132186 5.79863636,22.9093393 L5.79863636,22.675612 C5.79863636,22.3986005 5.88520115,22.2514404 6.05833332,22.2341272 C6.42191089,22.1821875 6.71190293,22.1259204 6.92831814,22.0653241 C7.14473336,22.0047279 7.30487821,21.9311478 7.40875752,21.8445817 C7.51263682,21.7580156 7.58188865,21.6584661 7.61651509,21.5459302 C7.65114152,21.4333943 7.66845448,21.2905624 7.66845448,21.1174302 L7.66845448,8.10661251 C7.66845448,7.93348034 7.65114152,7.79064844 7.61651509,7.67811253 C7.58188865,7.56557661 7.51263682,7.46602711 7.40875752,7.37946102 C7.30487821,7.29289494 7.14473336,7.21931487 6.92831814,7.15871861 C6.71190293,7.09812234 6.42191089,7.04185523 6.05833332,6.98991558 C5.88520115,6.93797593 5.79863636,6.79081579 5.79863636,6.54843075 L5.79863636,6.31470348 C5.79863636,6.21082418 5.81594932,6.11560291 5.85057576,6.02903683 C6.40459871,6.06366326 6.99323927,6.09396094 7.61651509,6.11993076 C8.23979091,6.14590059 8.79380555,6.15888531 9.27857563,6.15888531 C9.76334572,6.15888531 10.3260168,6.14590059 10.9666059,6.11993076 C11.6071949,6.09396094 12.204492,6.06366326 12.7585149,6.02903683 C12.7758281,6.11560291 12.7888128,6.21082418 12.7974694,6.31470348 C12.8061261,6.41858279 12.8104543,6.4964911 12.8104543,6.54843075 C12.8104543,6.79081579 12.7238895,6.93797593 12.5507573,6.98991558 C12.1871798,7.04185523 11.8971877,7.09812234 11.6807725,7.15871861 C11.4643573,7.21931487 11.2998842,7.29289494 11.1873483,7.37946102 C11.0748124,7.46602711 11.0055606,7.56557661 10.9795907,7.67811253 C10.9536209,7.79064844 10.9406362,7.93348034 10.9406362,8.10661251 L10.9406362,13.6381578 L17.9524541,13.6381578 L17.9524541,8.10661251 C17.9524541,7.93348034 17.9351412,7.79064844 17.9005147,7.67811253 C17.8658883,7.56557661 17.7966365,7.46602711 17.6927572,7.37946102 C17.5888778,7.29289494 17.428733,7.21931487 17.2123178,7.15871861 C16.9959026,7.09812234 16.7059105,7.04185523 16.342333,6.98991558 C16.1692008,6.93797593 16.082636,6.79081579 16.082636,6.54843075 L16.082636,6.31470348 C16.082636,6.21082418 16.099949,6.11560291 16.1345754,6.02903683 C16.6885983,6.06366326 17.2815671,6.09396094 17.9134996,6.11993076 C18.545432,6.14590059 19.1124314,6.15888531 19.6145147,6.15888531 C20.0992847,6.15888531 20.6532994,6.14590059 21.2765752,6.11993076 C21.899851,6.09396094 22.4884916,6.06366326 23.0425145,6.02903683 C23.0598278,6.11560291 23.0728125,6.21082418 23.0814691,6.31470348 C23.0901257,6.41858279 23.0944539,6.4964911 23.0944539,6.54843075 C23.0944539,6.79081579 23.0078891,6.93797593 22.834757,6.98991558 C22.4711794,7.04185523 22.1811874,7.09812234 21.9647722,7.15871861 C21.7483569,7.21931487 21.5838838,7.29289494 21.4713479,7.37946102 C21.358812,7.46602711 21.2895602,7.56557661 21.2635904,7.67811253 C21.2376205,7.79064844 21.2246358,7.93348034 21.2246358,8.10661251 L21.2246358,21.1174302 Z" id="H" fill="#000000" sketch:type="MSShapeGroup"></path>
    </g>
</svg>