<?xml version="1.0" encoding="UTF-8" standalone="no"?>
<svg width="30px" height="30px" viewBox="0 0 30 30" version="1.1" xmlns="http://www.w3.org/2000/svg" xmlns:xlink="http://www.w3.org/1999/xlink" xmlns:sketch="http://www.bohemiancoding.com/sketch/ns">
    <!-- Generator: Sketch 3.3.2 (12043) - http://www.bohemiancoding.com/sketch -->
    <title>editor-bold</title>
    <desc>Created with Sketch.</desc>
    <defs></defs>
    <g id="Page-1" stroke="none" stroke-width="1" fill="none" fill-rule="evenodd" sketch:type="MSPage">
        <path d="M13.1942038,21.8325891 C13.1160787,21.6428567 13.0602751,21.4754458 13.0602751,21.3415171 L13.0267929,18.3281206 L13.0379536,16.3973147 L13.0379536,14.79017 C13.2500075,14.7120449 13.6183115,14.6785627 14.1651871,14.6785627 C15.3928671,14.6785627 16.3080468,14.79017 16.9218868,15.035706 C17.5357268,15.2700813 18.060281,15.7388318 18.4955494,16.4419577 C18.8080498,16.9441904 18.9531392,17.6138341 18.9531392,18.4508886 C18.9531392,19.2656217 18.8192105,19.9352654 18.5290316,20.4709803 C18.2500134,21.017856 17.7924236,21.4308029 17.1674228,21.7321425 C16.5424221,22.0334822 15.7500104,22.1897324 14.7567057,22.1897324 C14.2767944,22.1897324 13.7522402,22.0669644 13.1942038,21.8325891 L13.1942038,21.8325891 Z M13.0379536,13.5066863 C13.0267929,13.1272216 13.0267929,12.8370426 13.0267929,12.6473103 L13.0379536,11.553559 C13.0491144,10.2142717 13.0156322,9.18748473 12.9709893,8.43971598 C12.9486678,8.07141197 12.9486678,7.78123305 12.9486678,7.58033995 C13.5513471,7.4798934 14.0312584,7.43525049 14.3995624,7.43525049 C15.6718853,7.43525049 16.6205472,7.71426868 17.2455479,8.27230506 C17.8817094,8.83034144 18.1942098,9.52230655 18.1942098,10.3593611 C18.1942098,11.5423982 17.8593879,12.3794528 17.200905,12.8593641 C16.5312614,13.3504361 15.5491173,13.5848114 14.2544729,13.5848114 C13.7857224,13.5848114 13.3839362,13.5624899 13.0379536,13.5066863 L13.0379536,13.5066863 Z M7,23.4285731 C8.66294841,23.3727695 9.66741389,23.3392873 10.0357179,23.3058051 C11.3192016,23.22768 12.4241136,23.1607157 13.3616147,23.1830371 L15.5602781,23.22768 C16.5424221,23.2611622 17.2790301,23.1941979 17.7701021,23.104912 C18.7299247,22.9263404 19.4888542,22.7031258 20.0357298,22.4352684 C20.5826055,22.1674109 21.1071597,21.7656247 21.5982317,21.2299098 C21.9665357,20.8281236 22.2343932,20.3928552 22.3906433,19.9241047 C22.6026972,19.2991039 22.7143044,18.6964246 22.7143044,18.1272275 C22.7143044,17.1562442 22.3683219,16.2745467 21.6875175,15.4932958 C21.0067131,14.7008842 20.0134084,14.1651692 18.7076032,13.8638296 C19.57814,13.4620434 20.1473371,13.1830252 20.3817124,13.0044536 C20.8616237,12.6473103 21.2076062,12.2566848 21.4419815,11.8325772 C21.6763568,11.4084695 21.7991248,10.9285582 21.7991248,10.404004 C21.7991248,9.92409275 21.7209997,9.46650292 21.5647495,9.04239527 C21.4084993,8.61828762 21.1629633,8.22766215 20.8393022,7.8816796 C20.5156411,7.54685777 20.1361764,7.25667885 19.700908,7.0334643 C19.2544789,6.81024975 18.8973356,6.67632102 18.6294781,6.59819593 C17.8593879,6.39730283 17.1562621,6.29685628 16.4977792,6.29685628 L15.6718853,6.29685628 C15.2924206,6.29685628 15.069206,6.28569555 14.9799202,6.28569555 C14.8794737,6.28569555 14.7678664,6.29685628 14.6674199,6.29685628 L14.1651871,6.30801701 L9.92411063,6.45310647 L7.02232146,6.52007083 L7.06696437,7.44641122 C7.74776875,7.53569704 8.1718764,7.58033995 8.33928731,7.59150068 C8.71875205,7.61382214 8.97544878,7.66962577 9.10937751,7.75891159 C9.16518115,7.80355451 9.22098479,7.83703669 9.24330625,7.89284033 C9.31027061,8.04909051 9.35491352,8.45087671 9.36607425,9.10935963 C9.43303861,11.5423982 9.45536007,13.0379357 9.4665208,13.6182936 L9.48884225,19.1651752 C9.48884225,20.113837 9.45536007,20.8392843 9.3883957,21.3303563 C9.35491352,21.508928 9.27678843,21.6986604 9.15402042,21.8995535 C8.79687714,22.0446429 8.33928731,22.1562502 7.78125093,22.245536 C7.47991129,22.2790182 7.23437528,22.3348218 7.02232146,22.3794647 L7,23.4285731 Z" id="" fill="#000000" sketch:type="MSShapeGroup"></path>
    </g>
</svg>