<?xml version="1.0" encoding="UTF-8" standalone="no"?>
<svg width="30px" height="30px" viewBox="0 0 30 30" version="1.1" xmlns="http://www.w3.org/2000/svg" xmlns:xlink="http://www.w3.org/1999/xlink" xmlns:sketch="http://www.bohemiancoding.com/sketch/ns">
    <!-- Generator: Sketch 3.3.2 (12043) - http://www.bohemiancoding.com/sketch -->
    <title>emoji-outline</title>
    <desc>Created with Sketch.</desc>
    <defs></defs>
    <g id="Page-1" stroke="none" stroke-width="1" fill="none" fill-rule="evenodd" sketch:type="MSPage">
        <g id="keyboard-alt" sketch:type="MSLayerGroup" transform="translate(4.214273, 4.881304)" fill="#000000">
            <path d="M13.5,9 C14.3,9 15,8.3 15,7.5 C15,6.7 14.3,6 13.5,6 C12.7,6 12,6.7 12,7.5 C12,8.3 12.7,9 13.5,9 L13.5,9 Z M6.5,9 C7.3,9 8,8.3 8,7.5 C8,6.7 7.3,6 6.5,6 C5.7,6 5,6.7 5,7.5 C5,8.3 5.7,9 6.5,9 L6.5,9 Z M10,16 C12.6,16 14.8,14.3 15.7,12 L4.3,12 C5.2,14.3 7.4,16 10,16 L10,16 Z M0,10 C0,15.5 4.5,20 10,20 C12.5494328,20 14.8840025,19.0331163 16.6551225,17.4479353 C18.7049153,15.6133379 20,12.9505672 20,10 C20,4.5 15.5,0 10,0 C4.5,0 0,4.5 0,10 Z M2,10 C2,5.6 5.6,2 10,2 C14.4,2 18,5.6 18,10 C18,14.4 14.4,18 10,18 C5.6,18 2,14.4 2,10 Z" id="Shape" sketch:type="MSShapeGroup"></path>
        </g>
    </g>
</svg>