<?xml version="1.0" encoding="UTF-8" standalone="no"?>
<svg width="30px" height="30px" viewBox="0 0 30 30" version="1.1" xmlns="http://www.w3.org/2000/svg" xmlns:xlink="http://www.w3.org/1999/xlink" xmlns:sketch="http://www.bohemiancoding.com/sketch/ns">
    <!-- Generator: Sketch 3.3.2 (12043) - http://www.bohemiancoding.com/sketch -->
    <title>emoji-sad</title>
    <desc>Created with Sketch.</desc>
    <defs></defs>
    <g id="Page-1" stroke="none" stroke-width="1" fill="none" fill-rule="evenodd" sketch:type="MSPage">
        <path d="M19.4017916,19.7696921 C18.7321479,17.6134396 16.7633956,16.1670093 14.5,16.1670093 C12.2366044,16.1670093 10.2678521,17.6134396 9.59820844,19.7696921 C9.45088684,20.2250498 9.70535143,20.6938004 10.1607091,20.841122 C10.6026739,20.9884436 11.0848174,20.733979 11.232139,20.2786213 C11.6741038,18.8455839 12.9999982,17.881297 14.5,17.881297 C16.0000018,17.881297 17.3258962,18.8455839 17.767861,20.2786213 C17.9151826,20.733979 18.3973261,20.9884436 18.8526838,20.841122 C19.2946486,20.6938004 19.5491132,20.2250498 19.4017916,19.7696921 L19.4017916,19.7696921 Z M12.7857122,11.8812899 C12.7857122,10.9303959 12.0223185,10.1670021 11.0714245,10.1670021 C10.1205305,10.1670021 9.35713673,10.9303959 9.35713673,11.8812899 C9.35713673,12.8321839 10.1205305,13.5955776 11.0714245,13.5955776 C12.0223185,13.5955776 12.7857122,12.8321839 12.7857122,11.8812899 L12.7857122,11.8812899 Z M19.6428633,11.8812899 C19.6428633,10.9303959 18.8794695,10.1670021 17.9285755,10.1670021 C16.9776815,10.1670021 16.2142878,10.9303959 16.2142878,11.8812899 C16.2142878,12.8321839 16.9776815,13.5955776 17.9285755,13.5955776 C18.8794695,13.5955776 19.6428633,12.8321839 19.6428633,11.8812899 L19.6428633,11.8812899 Z M23.0714388,15.3098654 C23.0714388,20.0375496 19.2276842,23.8813042 14.5,23.8813042 C9.77231579,23.8813042 5.92856121,20.0375496 5.92856121,15.3098654 C5.92856121,10.5821812 9.77231579,6.73842659 14.5,6.73842659 C19.2276842,6.73842659 23.0714388,10.5821812 23.0714388,15.3098654 L23.0714388,15.3098654 Z M24.7857265,15.3098654 C24.7857265,9.63128718 20.1785782,5.02413883 14.5,5.02413883 C8.8214218,5.02413883 4.21427345,9.63128718 4.21427345,15.3098654 C4.21427345,20.9884436 8.8214218,25.5955919 14.5,25.5955919 C20.1785782,25.5955919 24.7857265,20.9884436 24.7857265,15.3098654 L24.7857265,15.3098654 Z" id="" fill="#000000" sketch:type="MSShapeGroup"></path>
    </g>
</svg>