<?xml version="1.0" encoding="UTF-8" standalone="no"?>
<svg width="30px" height="30px" viewBox="0 0 30 30" version="1.1" xmlns="http://www.w3.org/2000/svg" xmlns:xlink="http://www.w3.org/1999/xlink" xmlns:sketch="http://www.bohemiancoding.com/sketch/ns">
    <!-- Generator: Sketch 3.3.2 (12043) - http://www.bohemiancoding.com/sketch -->
    <title>emoji-soso</title>
    <desc>Created with Sketch.</desc>
    <defs></defs>
    <g id="Page-1" stroke="none" stroke-width="1" fill="none" fill-rule="evenodd" sketch:type="MSPage">
        <path d="M19.6428633,17.881297 C19.6428633,17.4125465 19.25447,17.0241531 18.7857194,17.0241531 L10.2142806,17.0241531 C9.74553005,17.0241531 9.35713673,17.4125465 9.35713673,17.881297 C9.35713673,18.3500476 9.74553005,18.7384409 10.2142806,18.7384409 L18.7857194,18.7384409 C19.25447,18.7384409 19.6428633,18.3500476 19.6428633,17.881297 L19.6428633,17.881297 Z M12.7857122,11.8812899 C12.7857122,10.9303959 12.0223185,10.1670021 11.0714245,10.1670021 C10.1205305,10.1670021 9.35713673,10.9303959 9.35713673,11.8812899 C9.35713673,12.8321839 10.1205305,13.5955776 11.0714245,13.5955776 C12.0223185,13.5955776 12.7857122,12.8321839 12.7857122,11.8812899 L12.7857122,11.8812899 Z M19.6428633,11.8812899 C19.6428633,10.9303959 18.8794695,10.1670021 17.9285755,10.1670021 C16.9776815,10.1670021 16.2142878,10.9303959 16.2142878,11.8812899 C16.2142878,12.8321839 16.9776815,13.5955776 17.9285755,13.5955776 C18.8794695,13.5955776 19.6428633,12.8321839 19.6428633,11.8812899 L19.6428633,11.8812899 Z M23.0714388,15.3098654 C23.0714388,20.0375496 19.2276842,23.8813042 14.5,23.8813042 C9.77231579,23.8813042 5.92856121,20.0375496 5.92856121,15.3098654 C5.92856121,10.5821812 9.77231579,6.73842659 14.5,6.73842659 C19.2276842,6.73842659 23.0714388,10.5821812 23.0714388,15.3098654 L23.0714388,15.3098654 Z M24.7857265,15.3098654 C24.7857265,9.63128718 20.1785782,5.02413883 14.5,5.02413883 C8.8214218,5.02413883 4.21427345,9.63128718 4.21427345,15.3098654 C4.21427345,20.9884436 8.8214218,25.5955919 14.5,25.5955919 C20.1785782,25.5955919 24.7857265,20.9884436 24.7857265,15.3098654 L24.7857265,15.3098654 Z" id="" fill="#000000" sketch:type="MSShapeGroup"></path>
    </g>
</svg>