<?xml version="1.0" encoding="UTF-8" standalone="no"?>
<svg width="30px" height="30px" viewBox="0 0 30 30" version="1.1" xmlns="http://www.w3.org/2000/svg" xmlns:xlink="http://www.w3.org/1999/xlink" xmlns:sketch="http://www.bohemiancoding.com/sketch/ns">
    <!-- Generator: Sketch 3.3.2 (12043) - http://www.bohemiancoding.com/sketch -->
    <title>file-double</title>
    <desc>Created with Sketch.</desc>
    <defs></defs>
    <g id="Page-1" stroke="none" stroke-width="1" fill="none" fill-rule="evenodd" sketch:type="MSPage">
        <g id="drive-file-copy-2" sketch:type="MSLayerGroup" transform="translate(5.000000, 4.000000)" fill="#000000">
            <path d="M6,0 C4.9,0 4,0.81 4,1.8 L4,16.2 C4,17.19 4.9,18 6,18 L18,18 C19.1,18 20,17.19 20,16.2 L20,5.4 L14,0 L6,0 L6,0 Z M13,6.3 L13,1.35 L18.5,6.3 L13,6.3 L13,6.3 Z M14,22 L2,22 C0.9,22 0,21.04375 0,19.875 L0,5 L2,5 L2,19.875 L14,19.875 L14,22 L14,22 Z" id="Shape" sketch:type="MSShapeGroup"></path>
        </g>
    </g>
</svg>