<?xml version="1.0" encoding="UTF-8" standalone="no"?>
<svg width="30px" height="30px" viewBox="0 0 30 30" version="1.1" xmlns="http://www.w3.org/2000/svg" xmlns:xlink="http://www.w3.org/1999/xlink" xmlns:sketch="http://www.bohemiancoding.com/sketch/ns">
    <!-- Generator: Sketch 3.3.2 (12043) - http://www.bohemiancoding.com/sketch -->
    <title>file-double-outline</title>
    <desc>Created with Sketch.</desc>
    <defs></defs>
    <g id="Page-1" stroke="none" stroke-width="1" fill="none" fill-rule="evenodd" sketch:type="MSPage">
        <g id="drive-file-copy-5" sketch:type="MSLayerGroup" transform="translate(9.000000, 4.000000)" stroke="#000000" stroke-width="2">
            <path d="M2,0 C0.9,0 0,0.81 0,1.8 L0,16.2 C0,17.19 0.9,18 2,18 L14,18 C15.1,18 16,17.19 16,16.2 L16,5.4 L10,0 L2,0 L2,0 Z M9,6.3 L9,1.35 L14.5,6.3 L9,6.3 L9,6.3 Z" id="Shape" sketch:type="MSShapeGroup"></path>
        </g>
        <path d="M19,26 L7,26 C5.9,26 5,25.04375 5,23.875 L5,9 L7,9 L7,23.875 L19,23.875 L19,26 L19,26 Z" id="Path-Copy-13" fill="#000000" sketch:type="MSShapeGroup"></path>
    </g>
</svg>