<?xml version="1.0" encoding="UTF-8" standalone="no"?>
<svg width="30px" height="30px" viewBox="0 0 30 30" version="1.1" xmlns="http://www.w3.org/2000/svg" xmlns:xlink="http://www.w3.org/1999/xlink" xmlns:sketch="http://www.bohemiancoding.com/sketch/ns">
    <!-- Generator: Sketch 3.3.2 (12043) - http://www.bohemiancoding.com/sketch -->
    <title>github</title>
    <desc>Created with Sketch.</desc>
    <defs></defs>
    <g id="Page-1" stroke="none" stroke-width="1" fill="none" fill-rule="evenodd" sketch:type="MSPage">
        <g id="sc-github" sketch:type="MSLayerGroup" transform="translate(5.000000, 5.428569)" fill="#000000">
            <path d="M9.99933333,0 C4.47733333,0 0,4.47733333 0,10.0006667 C0,14.4186667 2.86533333,18.1666667 6.83933333,19.4886667 C7.33933333,19.5806667 7.52133333,19.272 7.52133333,19.0066667 C7.52133333,18.7693333 7.51333333,18.1406667 7.508,17.306 C4.72666667,17.9106667 4.13933333,15.9653333 4.13933333,15.9653333 C3.68466667,14.8106667 3.02933333,14.5026667 3.02933333,14.5026667 C2.12133333,13.8826667 3.098,13.8946667 3.098,13.8946667 C4.10133333,13.9653333 4.63,14.9253333 4.63,14.9253333 C5.522,16.454 6.97,16.0126667 7.54,15.7566667 C7.63066667,15.11 7.88933333,14.6693333 8.17466667,14.4193333 C5.954,14.1673333 3.62,13.3093333 3.62,9.47733333 C3.62,8.38533333 4.00933333,7.49266667 4.64933333,6.794 C4.546,6.54066667 4.20333333,5.524 4.74733333,4.14733333 C4.74733333,4.14733333 5.58666667,3.87866667 7.49733333,5.17266667 C8.29466667,4.95066667 9.15,4.84 10.0006667,4.836 C10.85,4.84 11.7053333,4.95066667 12.504,5.17266667 C14.4133333,3.87866667 15.2513333,4.14733333 15.2513333,4.14733333 C15.7966667,5.524 15.4533333,6.54066667 15.3506667,6.794 C15.992,7.49266667 16.3786667,8.38533333 16.3786667,9.47733333 C16.3786667,13.3186667 14.0406667,14.164 11.8126667,14.412 C12.172,14.7206667 12.492,15.3306667 12.492,16.2633333 C12.492,17.6006667 12.4793333,18.6793333 12.4793333,19.0066667 C12.4793333,19.274 12.66,19.5853333 13.1673333,19.488 C17.1373333,18.1626667 20,14.4173333 20,10.0006667 C20,4.47733333 15.522,0 9.99933333,0" id="Fill-123" sketch:type="MSShapeGroup"></path>
        </g>
    </g>
</svg>