<?xml version="1.0" encoding="UTF-8" standalone="no"?>
<svg width="30px" height="30px" viewBox="0 0 30 30" version="1.1" xmlns="http://www.w3.org/2000/svg" xmlns:xlink="http://www.w3.org/1999/xlink" xmlns:sketch="http://www.bohemiancoding.com/sketch/ns">
    <!-- Generator: Sketch 3.3.2 (12043) - http://www.bohemiancoding.com/sketch -->
    <title>google-plus</title>
    <desc>Created with Sketch.</desc>
    <defs></defs>
    <g id="Page-1" stroke="none" stroke-width="1" fill="none" fill-rule="evenodd" sketch:type="MSPage">
        <path d="M15.7767974,20.6361577 C15.7767974,22.5892851 13.9241166,23.2589287 12.2611682,23.2589287 C10.4754518,23.2589287 8.0647346,22.4330349 8.0647346,20.2901752 C8.0647346,17.9687438 10.7879521,17.388386 12.6183115,17.388386 C12.8080438,17.388386 12.9866155,17.388386 13.1763478,17.4107075 C14.3147421,18.2031191 15.7767974,19.0736559 15.7767974,20.6361577 L15.7767974,20.6361577 Z M14.4375101,11.0156105 C14.4375101,12.3772193 13.9129559,13.4821313 12.3839362,13.4821313 C10.3973267,13.4821313 9.28125391,10.8258782 9.28125391,9.12944758 C9.28125391,7.81248172 9.99554048,6.51783732 11.4575958,6.51783732 C13.5223304,6.51783732 14.4375101,9.31917995 14.4375101,11.0156105 L14.4375101,11.0156105 Z M12.9754547,5.71426494 C12.2723289,5.71426494 11.5692031,5.79239003 10.8883987,5.93747949 C8.85714626,6.38390859 7.21651931,8.19194646 7.21651931,10.3124847 C7.21651931,12.555791 9.09152154,14.151775 11.2567027,14.151775 C11.5133994,14.151775 11.7700962,14.1294535 12.0379536,14.0959714 C11.9263464,14.4419539 11.7924176,14.6874899 11.7924176,15.0557939 C11.7924176,15.6807947 12.1384002,16.2388311 12.5067042,16.7187423 C10.5089339,16.774546 7.40625168,17.2879394 6.41294692,19.2968704 C6.17857164,19.765621 6,20.2790144 6,20.8035686 C6,23.3928574 9.01339645,24.2857156 11.1004525,24.2857156 C12.7522402,24.2857156 14.5044744,23.9285724 15.7879581,22.8236603 C16.7366199,21.9977665 17.35046,20.9598188 17.35046,19.6763352 C17.35046,16.5513314 14.0022417,15.9821343 14.0022417,14.5424005 C14.0022417,13.0691844 16.5022447,12.8459699 16.5022447,9.88837706 C16.5022447,8.63837557 15.9442083,7.28792753 14.8392963,6.59596242 L16.3459945,6.59596242 L17.8526927,5.71426494 L12.9754547,5.71426494 Z M24.5714507,8.5714112 L21.7143044,8.5714112 L21.7143044,5.71426494 L20.2857313,5.71426494 L20.2857313,8.5714112 L17.4285851,8.5714112 L17.4285851,9.99998433 L20.2857313,9.99998433 L20.2857313,12.8571306 L21.7143044,12.8571306 L21.7143044,9.99998433 L24.5714507,9.99998433 L24.5714507,8.5714112 Z" id="" fill="#000000" sketch:type="MSShapeGroup"></path>
    </g>
</svg>