<?xml version="1.0" encoding="UTF-8" standalone="no"?>
<svg width="30px" height="30px" viewBox="0 0 30 30" version="1.1" xmlns="http://www.w3.org/2000/svg" xmlns:xlink="http://www.w3.org/1999/xlink" xmlns:sketch="http://www.bohemiancoding.com/sketch/ns">
    <!-- Generator: Sketch 3.3.2 (12043) - http://www.bohemiancoding.com/sketch -->
    <title>headset</title>
    <desc>Created with Sketch.</desc>
    <defs></defs>
    <g id="Page-1" stroke="none" stroke-width="1" fill="none" fill-rule="evenodd" sketch:type="MSPage">
        <g id="headset" sketch:type="MSLayerGroup" transform="translate(6.000000, 3.500000)" fill="#000000">
            <path d="M0,8.52631579 L0,15.1578947 C0,16.7684211 1.3,18 3,18 L6,18 L6,10.4210526 L2,10.4210526 L2,8.52631579 C2,4.83157895 5.1,1.89473684 9,1.89473684 C12.9,1.89473684 16,4.83157895 16,8.52631579 L16,10.4210526 L12,10.4210526 L12,18 L15,18 C16.7,18 18,16.7684211 18,15.1578947 L18,8.52631579 C18,3.78947368 14,0 9,0 C4,0 0,3.78947368 0,8.52631579 Z" id="Shape" sketch:type="MSShapeGroup"></path>
        </g>
        <path d="M23.0512695,17.574707 C23.0512695,17.574707 25.0629883,25.8911133 16.7143555,25.8911133" id="Path-642" stroke="#000000" sketch:type="MSShapeGroup" transform="translate(19.989189, 21.732910) rotate(6.000000) translate(-19.989189, -21.732910) "></path>
        <rect id="Rectangle-4" fill="#000000" sketch:type="MSShapeGroup" x="15" y="24" width="4" height="3" rx="8"></rect>
    </g>
</svg>