<?xml version="1.0" encoding="UTF-8" standalone="no"?>
<svg width="30px" height="30px" viewBox="0 0 30 30" version="1.1" xmlns="http://www.w3.org/2000/svg" xmlns:xlink="http://www.w3.org/1999/xlink" xmlns:sketch="http://www.bohemiancoding.com/sketch/ns">
    <!-- Generator: Sketch 3.3.2 (12043) - http://www.bohemiancoding.com/sketch -->
    <title>help-outline</title>
    <desc>Created with Sketch.</desc>
    <defs></defs>
    <g id="Page-1" stroke="none" stroke-width="1" fill="none" fill-rule="evenodd" sketch:type="MSPage">
        <g id="help-copy" sketch:type="MSLayerGroup" transform="translate(5.000000, 5.000000)" stroke="#000000" stroke-width="2">
            <path d="M10,0 C4.5,0 0,4.5 0,10 C0,15.5 4.5,20 10,20 C15.5,20 20,15.5 20,10 C20,4.5 15.5,0 10,0 L10,0 Z" id="Shape" sketch:type="MSShapeGroup"></path>
            <path d="M10.8464181,15.9249268 L9.15358189,15.9249268 L9.15358189,14.2320905 L10.8464181,14.2320905 L10.8464181,15.9249268 L10.8464181,15.9249268 Z" id="Path" sketch:type="MSShapeGroup"></path>
            <path d="M12.6238961,9.40750732 L11.8621198,10.1692836 C11.1849854,10.7617763 10.8464181,11.2696272 10.8464181,12.5392543 L9.15358189,12.5392543 L9.15358189,12.1160453 C9.15358189,11.1849854 9.49214914,10.3385672 10.1692836,9.74607457 L11.1849854,8.64573103 C11.5235526,8.39180559 11.6928362,7.96859654 11.6928362,7.46074568 C11.6928362,6.52968576 10.9310599,5.76790946 10,5.76790946 C9.06894008,5.76790946 8.30716378,6.52968576 8.30716378,7.46074568 L6.61432757,7.46074568 C6.61432757,5.59862584 8.13788016,4.07507324 10,4.07507324 C11.8621198,4.07507324 13.3856724,5.59862584 13.3856724,7.46074568 C13.3856724,8.22252197 13.0471052,8.89965646 12.6238961,9.40750732 L12.6238961,9.40750732 Z" id="Path" sketch:type="MSShapeGroup"></path>
        </g>
    </g>
</svg>