<?xml version="1.0" encoding="UTF-8" standalone="no"?>
<svg width="30px" height="30px" viewBox="0 0 30 30" version="1.1" xmlns="http://www.w3.org/2000/svg" xmlns:xlink="http://www.w3.org/1999/xlink" xmlns:sketch="http://www.bohemiancoding.com/sketch/ns">
    <!-- Generator: Sketch 3.3.2 (12043) - http://www.bohemiancoding.com/sketch -->
    <title>help</title>
    <desc>Created with Sketch.</desc>
    <defs></defs>
    <g id="Page-1" stroke="none" stroke-width="1" fill="none" fill-rule="evenodd" sketch:type="MSPage">
        <g id="help" sketch:type="MSLayerGroup" transform="translate(5.000000, 5.000000)" fill="#000000">
            <path d="M10,0 C4.5,0 0,4.5 0,10 C0,15.5 4.5,20 10,20 C15.5,20 20,15.5 20,10 C20,4.5 15.5,0 10,0 L10,0 Z M10.8515799,15.9610596 L9.14842006,15.9610596 L9.14842006,14.2578997 L10.8515799,14.2578997 L10.8515799,15.9610596 L10.8515799,15.9610596 Z M12.6398978,9.40389404 L11.8734759,10.170316 C11.1922119,10.7664219 10.8515799,11.2773699 10.8515799,12.5547398 L9.14842006,12.5547398 L9.14842006,12.1289498 C9.14842006,11.1922119 9.48905204,10.340632 10.170316,9.74452602 L11.1922119,8.6374721 C11.5328439,8.38199812 11.7031599,7.95620815 11.7031599,7.44526018 C11.7031599,6.50852225 10.9367379,5.74210031 10,5.74210031 C9.06326207,5.74210031 8.29684012,6.50852225 8.29684012,7.44526018 L6.59368025,7.44526018 C6.59368025,5.57178432 8.12652414,4.03894043 10,4.03894043 C11.8734759,4.03894043 13.4063198,5.57178432 13.4063198,7.44526018 C13.4063198,8.21168213 13.0656878,8.89294608 12.6398978,9.40389404 L12.6398978,9.40389404 Z" id="Shape" sketch:type="MSShapeGroup"></path>
        </g>
    </g>
</svg>