<?xml version="1.0" encoding="UTF-8" standalone="no"?>
<svg width="30px" height="30px" viewBox="0 0 30 30" version="1.1" xmlns="http://www.w3.org/2000/svg" xmlns:xlink="http://www.w3.org/1999/xlink" xmlns:sketch="http://www.bohemiancoding.com/sketch/ns">
    <!-- Generator: Sketch 3.3.2 (12043) - http://www.bohemiancoding.com/sketch -->
    <title>inbox-task-outline</title>
    <desc>Created with Sketch.</desc>
    <defs></defs>
    <g id="Page-1" stroke="none" stroke-width="1" fill="none" fill-rule="evenodd" sketch:type="MSPage">
        <g id="inbox" sketch:type="MSLayerGroup" transform="translate(6.000000, 6.000000)" stroke="#000000" stroke-width="2">
            <path d="M2,0 C0.9,0 0,0.9 0,2 L0,16 C0,17.1 0.9,18 2,18 L16,18 C17.1,18 18,17.1 18,16 L18,2 C18,0.9 17.1,0 16,0 L2,0 Z M16,12 L12,12 C12,13.7 10.7,15 9,15 C7.3,15 6,13.7 6,12 L2,12 L2,2 L16,2 L16,12 L16,12 Z" id="Shape" sketch:type="MSShapeGroup"></path>
        </g>
        <path d="M10,13.5 L11.4,12.1 L13.5,14.2 L18.7,9 L20.1,10.4 L13.5,17 L10,13.5 Z" id="Path-Copy" fill="#000000" sketch:type="MSShapeGroup"></path>
    </g>
</svg>