<?xml version="1.0" encoding="UTF-8" standalone="no"?>
<svg width="30px" height="30px" viewBox="0 0 30 30" version="1.1" xmlns="http://www.w3.org/2000/svg" xmlns:xlink="http://www.w3.org/1999/xlink" xmlns:sketch="http://www.bohemiancoding.com/sketch/ns">
    <!-- Generator: Sketch 3.3.2 (12043) - http://www.bohemiancoding.com/sketch -->
    <title>instagram-square</title>
    <desc>Created with Sketch.</desc>
    <defs></defs>
    <g id="Page-1" stroke="none" stroke-width="1" fill="none" fill-rule="evenodd" sketch:type="MSPage">
        <g id="post-instagram" sketch:type="MSLayerGroup" transform="translate(5.000000, 5.428569)" fill="#000000">
            <path d="M18,0 L2,0 C0.9,0 0,0.9 0,2 L0,18 C0,19.1 0.9,20 2,20 L18,20 C19.1,20 20,19.1 20,18 L20,2 C20,0.9 19.1,0 18,0 L18,0 Z M10,6 C12.2,6 14,7.8 14,10 C14,12.2 12.2,14 10,14 C7.8,14 6,12.2 6,10 C6,7.8 7.8,6 10,6 L10,6 Z M2.5,18 C2.2,18 2,17.8 2,17.5 L2,9 L4.1,9 C4,9.3 4,9.7 4,10 C4,13.3 6.7,16 10,16 C13.3,16 16,13.3 16,10 C16,9.7 16,9.3 15.9,9 L18,9 L18,17.5 C18,17.8 17.8,18 17.5,18 L2.5,18 L2.5,18 Z M18,4.5 C18,4.8 17.8,5 17.5,5 L15.5,5 C15.2,5 15,4.8 15,4.5 L15,2.5 C15,2.2 15.2,2 15.5,2 L17.5,2 C17.8,2 18,2.2 18,2.5 L18,4.5 L18,4.5 Z" id="Shape" sketch:type="MSShapeGroup"></path>
        </g>
    </g>
</svg>