<?xml version="1.0" encoding="UTF-8" standalone="no"?>
<svg width="30px" height="30px" viewBox="0 0 30 30" version="1.1" xmlns="http://www.w3.org/2000/svg" xmlns:xlink="http://www.w3.org/1999/xlink" xmlns:sketch="http://www.bohemiancoding.com/sketch/ns">
    <!-- Generator: Sketch 3.3.2 (12043) - http://www.bohemiancoding.com/sketch -->
    <title>label</title>
    <desc>Created with Sketch.</desc>
    <defs></defs>
    <g id="Page-1" stroke="none" stroke-width="1" fill="none" fill-rule="evenodd" sketch:type="MSPage">
        <path d="M12.000006,10.5714328 C12.000006,11.3638445 11.3638445,12.000006 10.5714328,12.000006 C9.77902117,12.000006 9.1428597,11.3638445 9.1428597,10.5714328 C9.1428597,9.77902117 9.77902117,9.1428597 10.5714328,9.1428597 C11.3638445,9.1428597 12.000006,9.77902117 12.000006,10.5714328 L12.000006,10.5714328 Z M23.9085023,17.0000119 C23.9085023,16.6205472 23.7522521,16.2522432 23.4955554,15.9843857 L15.5156352,8.01562621 C14.946438,7.4464291 13.8638475,7 13.0714358,7 L8.42857313,7 C7.6473222,7 7,7.6473222 7,8.42857313 L7,13.0714358 C7,13.8638475 7.4464291,14.946438 8.01562621,15.5044744 L15.9955464,23.4955554 C16.2522432,23.7522521 16.6205472,23.9085023 17.0000119,23.9085023 C17.3794767,23.9085023 17.7477807,23.7522521 18.0156381,23.4955554 L23.4955554,18.0044774 C23.7522521,17.7477807 23.9085023,17.3794767 23.9085023,17.0000119 L23.9085023,17.0000119 Z" id="" fill="#000000" sketch:type="MSShapeGroup"></path>
    </g>
</svg>