<?xml version="1.0" encoding="UTF-8" standalone="no"?>
<svg width="30px" height="30px" viewBox="0 0 30 30" version="1.1" xmlns="http://www.w3.org/2000/svg" xmlns:xlink="http://www.w3.org/1999/xlink" xmlns:sketch="http://www.bohemiancoding.com/sketch/ns">
    <!-- Generator: Sketch 3.3.2 (12043) - http://www.bohemiancoding.com/sketch -->
    <title>label-double</title>
    <desc>Created with Sketch.</desc>
    <defs></defs>
    <g id="Page-1" stroke="none" stroke-width="1" fill="none" fill-rule="evenodd" sketch:type="MSPage">
        <path d="M10.000006,10.5714328 C10.000006,11.3638445 9.36384449,12.000006 8.57143283,12.000006 C7.77902117,12.000006 7.1428597,11.3638445 7.1428597,10.5714328 C7.1428597,9.77902117 7.77902117,9.1428597 8.57143283,9.1428597 C9.36384449,9.1428597 10.000006,9.77902117 10.000006,10.5714328 L10.000006,10.5714328 Z M21.9085023,17.0000119 C21.9085023,16.6205472 21.7522521,16.2522432 21.4955554,15.9843857 L13.5156352,8.01562621 C12.946438,7.4464291 11.8638475,7 11.0714358,7 L6.42857313,7 C5.6473222,7 5,7.6473222 5,8.42857313 L5,13.0714358 C5,13.8638475 5.4464291,14.946438 6.01562621,15.5044744 L13.9955464,23.4955554 C14.2522432,23.7522521 14.6205472,23.9085023 15.0000119,23.9085023 C15.3794767,23.9085023 15.7477807,23.7522521 16.0156381,23.4955554 L21.4955554,18.0044774 C21.7522521,17.7477807 21.9085023,17.3794767 21.9085023,17.0000119 L21.9085023,17.0000119 Z M26.1942217,17.0000119 C26.1942217,16.6205472 26.0379715,16.2522432 25.7812748,15.9843857 L17.8013545,8.01562621 C17.2321574,7.4464291 16.1495669,7 15.3571552,7 L12.8571522,7 C13.6495639,7 14.7321545,7.4464291 15.3013516,8.01562621 L23.2812718,15.9843857 C23.5379685,16.2522432 23.6942187,16.6205472 23.6942187,17.0000119 C23.6942187,17.3794767 23.5379685,17.7477807 23.2812718,18.0044774 L18.0357298,23.2500194 C18.4151946,23.6406448 18.7053735,23.9085023 19.2857313,23.9085023 C19.6651961,23.9085023 20.0335001,23.7522521 20.3013575,23.4955554 L25.7812748,18.0044774 C26.0379715,17.7477807 26.1942217,17.3794767 26.1942217,17.0000119 L26.1942217,17.0000119 Z" id="" fill="#000000" sketch:type="MSShapeGroup"></path>
    </g>
</svg>