<?xml version="1.0" encoding="UTF-8" standalone="no"?>
<svg width="30px" height="30px" viewBox="0 0 30 30" version="1.1" xmlns="http://www.w3.org/2000/svg" xmlns:xlink="http://www.w3.org/1999/xlink" xmlns:sketch="http://www.bohemiancoding.com/sketch/ns">
    <!-- Generator: Sketch 3.3.2 (12043) - http://www.bohemiancoding.com/sketch -->
    <title>label-outline</title>
    <desc>Created with Sketch.</desc>
    <defs></defs>
    <g id="Page-1" stroke="none" stroke-width="1" fill="none" fill-rule="evenodd" sketch:type="MSPage">
        <g id="label-outline" sketch:type="MSLayerGroup" transform="translate(16.359670, 13.652671) rotate(-44.000000) translate(-16.359670, -13.652671) translate(6.359670, 6.652671)" fill="#000000">
            <path d="M14.6,0.8 C14.3,0.3 13.7,5.68434189e-14 13,5.68434189e-14 L2,5.68434189e-14 C0.9,5.68434189e-14 5.68434189e-14,0.9 5.68434189e-14,2 L5.68434189e-14,12 C5.68434189e-14,13.1 0.9,14 2,14 L13,14 C13.7,14 14.3,13.7 14.6,13.2 L19,7 L14.6,0.8 L14.6,0.8 Z M13,12 L2,12 L2,2 L13,2 L16.5,7 L13,12 L13,12 Z" id="Shape" sketch:type="MSShapeGroup"></path>
        </g>
        <path d="M17.5,14 C18.3284271,14 19,13.3284271 19,12.5 C19,11.6715729 18.3284271,11 17.5,11 C16.6715729,11 16,11.6715729 16,12.5 C16,13.3284271 16.6715729,14 17.5,14 Z" id="Oval-5" fill="#000000" sketch:type="MSShapeGroup"></path>
    </g>
</svg>