<?xml version="1.0" encoding="UTF-8" standalone="no"?>
<svg width="30px" height="30px" viewBox="0 0 30 30" version="1.1" xmlns="http://www.w3.org/2000/svg" xmlns:xlink="http://www.w3.org/1999/xlink" xmlns:sketch="http://www.bohemiancoding.com/sketch/ns">
    <!-- Generator: Sketch 3.3.2 (12043) - http://www.bohemiancoding.com/sketch -->
    <title>laptop</title>
    <desc>Created with Sketch.</desc>
    <defs></defs>
    <g id="Page-1" stroke="none" stroke-width="1" fill="none" fill-rule="evenodd" sketch:type="MSPage">
        <g id="laptop" sketch:type="MSLayerGroup" transform="translate(3.500000, 7.000000)" fill="#000000">
            <path d="M20,14 C21.1,14 22,13.1 22,12 L22,2 C22,0.9 21.1,0 20,0 L4,0 C2.9,0 2,0.9 2,2 L2,12 C2,13.1 2.9,14 4,14 L0,14 L0,16 L24,16 L24,14 L20,14 L20,14 Z M4,2 L20,2 L20,12 L4,12 L4,2 L4,2 Z" id="Shape" sketch:type="MSShapeGroup"></path>
        </g>
    </g>
</svg>