<?xml version="1.0" encoding="UTF-8" standalone="no"?>
<svg width="30px" height="30px" viewBox="0 0 30 30" version="1.1" xmlns="http://www.w3.org/2000/svg" xmlns:xlink="http://www.w3.org/1999/xlink" xmlns:sketch="http://www.bohemiancoding.com/sketch/ns">
    <!-- Generator: Sketch 3.3.2 (12043) - http://www.bohemiancoding.com/sketch -->
    <title>like</title>
    <desc>Created with Sketch.</desc>
    <defs></defs>
    <g id="Page-1" stroke="none" stroke-width="1" fill="none" fill-rule="evenodd" sketch:type="MSPage">
        <g id="Fill-156-+-Fill-157" sketch:type="MSLayerGroup" transform="translate(4.000000, 6.000000)" stroke="#000000" stroke-width="2">
            <path d="M19.9357143,8.66346154 C19.9357143,9.49123077 19.0717143,9.58930769 18.9656429,9.99142308 C18.848,10.4340769 19.4857143,10.6112692 19.4857143,11.3880385 C19.4857143,12.2053462 18.5156429,12.1955385 18.3825714,12.6172692 C18.2257143,13.1174615 18.7014286,13.2541154 18.7014286,14.0576923 L18.6802143,14.2041538 C18.5477857,14.8763077 17.5648571,14.8946154 17.3957857,15.1711923 C17.2151429,15.4673846 17.4215,15.6517692 17.4215,16.3461538 C17.4215,16.7273462 16.9997857,17 16.4642857,17 L10.3571429,17 C9.86471429,17 9.30607143,16.7181923 8.714,16.4200385 C8.20871429,16.1656923 7.69121429,15.9048077 7.14285714,15.7799231 L7.14285714,8.83738462 C8.73714286,7.59573077 10.8052143,5.75057692 11.6049286,3.49088462 L11.6325714,3.38626923 L12.2188571,0.103961538 C12.413,0.0202692308 12.5917143,0 12.9285714,0 C13.0706429,0 13.5714286,0.782653846 13.5714286,3.26923077 C13.5714286,4.21992308 13.4049286,5.31838462 13.0751429,6.53846154 L12.9163571,6.53846154 C12.5615,6.53846154 12.2735,6.83073077 12.2735,7.19230769 C12.2735,7.55388462 12.5615,7.84615385 12.9163571,7.84615385 L18.7142857,7.84615385 C19.3468571,7.84615385 19.9357143,8.15280769 19.9357143,8.66346154 L19.9357143,8.66346154 Z" id="Path" sketch:type="MSShapeGroup"></path>
            <rect id="Rectangle-3" sketch:type="MSShapeGroup" x="0" y="5" width="7" height="14"></rect>
        </g>
    </g>
</svg>