<?xml version="1.0" encoding="UTF-8" standalone="no"?>
<svg width="30px" height="30px" viewBox="0 0 30 30" version="1.1" xmlns="http://www.w3.org/2000/svg" xmlns:xlink="http://www.w3.org/1999/xlink" xmlns:sketch="http://www.bohemiancoding.com/sketch/ns">
    <!-- Generator: Sketch 3.3.2 (12043) - http://www.bohemiancoding.com/sketch -->
    <title>link</title>
    <desc>Created with Sketch.</desc>
    <defs></defs>
    <g id="Page-1" stroke="none" stroke-width="1" fill="none" fill-rule="evenodd" sketch:type="MSPage">
        <g id="Imported-Layers" sketch:type="MSLayerGroup" transform="translate(6.000000, 6.000000)" stroke="#000000">
            <path d="M8.3964,12.1494 C8.4186,12.2976 8.442,12.4458 8.442,12.6 C8.442,13.413 8.1252,14.1768 7.551,14.751 L6.351,15.951 C5.7762,16.5258 5.013,16.842 4.2,16.842 C2.523,16.842 1.158,15.4776 1.158,13.8 C1.158,12.9876 1.4748,12.2238 2.049,11.649 L3.243,10.4556 C3.8184,9.8772 4.5846,9.558 5.4,9.558 C5.5542,9.558 5.7024,9.5814 5.8506,9.6036 L6.7746,8.6802 C6.3432,8.5284 5.8824,8.442 5.4,8.442 C4.2852,8.442 3.2376,8.8782 2.4528,9.6678 L1.26,10.86 C0.4746,11.6454 0.042,12.6894 0.042,13.8 C0.042,16.0926 1.9074,17.958 4.2,17.958 C5.3106,17.958 6.3546,17.5254 7.14,16.7406 L8.34,15.5406 C9.1254,14.7546 9.558,13.7106 9.558,12.6 C9.558,12.1182 9.4716,11.6568 9.3198,11.226 L8.3964,12.1494" id="Fill-1" fill="#000000" sketch:type="MSShapeGroup"></path>
            <path d="M13.8,0.042 C12.6852,0.042 11.6376,0.4782 10.8528,1.2678 L9.66,2.46 C8.8746,3.2454 8.442,4.2894 8.442,5.4 C8.442,5.8824 8.5284,6.3432 8.6802,6.7746 L9.6036,5.8506 C9.5814,5.7024 9.558,5.5542 9.558,5.4 C9.558,4.5876 9.8748,3.8238 10.449,3.249 L11.643,2.0556 C12.2184,1.4772 12.9846,1.158 13.8,1.158 C15.477,1.158 16.842,2.523 16.842,4.2 C16.842,5.013 16.5252,5.7768 15.951,6.351 L14.751,7.551 C14.1762,8.1258 13.4124,8.442 12.6,8.442 C12.4458,8.442 12.2976,8.4186 12.1494,8.3964 L11.2254,9.3198 C11.6568,9.4716 12.1182,9.558 12.6,9.558 C13.7106,9.558 14.7546,9.1254 15.54,8.3406 L16.74,7.1406 C17.5254,6.3546 17.958,5.3106 17.958,4.2 C17.958,1.9074 16.0926,0.042 13.8,0.042" id="Fill-2" fill="#000000" sketch:type="MSShapeGroup"></path>
            <path d="M6,12.6 C5.8464,12.6 5.6928,12.5412 5.5758,12.4242 C5.3412,12.1902 5.3412,11.8104 5.5758,11.5758 L11.5758,5.5758 C11.8104,5.3412 12.1896,5.3412 12.4242,5.5758 C12.6588,5.8104 12.6588,6.1902 12.4242,6.4242 L6.4242,12.4242 C6.3072,12.5412 6.1536,12.6 6,12.6" id="Fill-3" fill="#010101" sketch:type="MSShapeGroup"></path>
        </g>
    </g>
</svg>