<?xml version="1.0" encoding="UTF-8" standalone="no"?>
<svg width="30px" height="30px" viewBox="0 0 30 30" version="1.1" xmlns="http://www.w3.org/2000/svg" xmlns:xlink="http://www.w3.org/1999/xlink" xmlns:sketch="http://www.bohemiancoding.com/sketch/ns">
    <!-- Generator: Sketch 3.3.2 (12043) - http://www.bohemiancoding.com/sketch -->
    <title>list-ul</title>
    <desc>Created with Sketch.</desc>
    <defs></defs>
    <g id="Page-1" stroke="none" stroke-width="1" fill="none" fill-rule="evenodd" sketch:type="MSPage">
        <g id="list" sketch:type="MSLayerGroup" transform="translate(6.000000, 9.000000)" fill="#000000">
            <path d="M0,7 L2,7 L2,5 L0,5 L0,7 L0,7 Z M0,12 L2,12 L2,10 L0,10 L0,12 L0,12 Z M0,2 L2,2 L2,0 L0,0 L0,2 L0,2 Z M4,7 L18,7 L18,5 L4,5 L4,7 L4,7 Z M18,12 L18,10 L4,10 L4,12 L18,12 Z M4,0 L4,2 L18,2 L18,0 L4,0 L4,0 Z" id="Shape" sketch:type="MSShapeGroup"></path>
        </g>
    </g>
</svg>