<?xml version="1.0" encoding="UTF-8" standalone="no"?>
<svg width="30px" height="30px" viewBox="0 0 30 30" version="1.1" xmlns="http://www.w3.org/2000/svg" xmlns:xlink="http://www.w3.org/1999/xlink" xmlns:sketch="http://www.bohemiancoding.com/sketch/ns">
    <!-- Generator: Sketch 3.3.2 (12043) - http://www.bohemiancoding.com/sketch -->
    <title>loader</title>
    <desc>Created with Sketch.</desc>
    <defs></defs>
    <g id="Page-1" stroke="none" stroke-width="1" fill="none" fill-rule="evenodd" sketch:type="MSPage">
        <path d="M12.5357209,20.571426 C12.5357209,19.6785678 11.8102736,18.9642812 10.9285761,18.9642812 C10.0357179,18.9642812 9.32143134,19.6785678 9.32143134,20.571426 C9.32143134,21.4642842 10.0357179,22.1785708 10.9285761,22.1785708 C11.8102736,22.1785708 12.5357209,21.4642842 12.5357209,20.571426 L12.5357209,20.571426 Z M17.3571552,22.7142857 C17.3571552,21.9218741 16.7209937,21.2857126 15.9285821,21.2857126 C15.1361704,21.2857126 14.5000089,21.9218741 14.5000089,22.7142857 C14.5000089,23.5066974 15.1361704,24.1428588 15.9285821,24.1428588 C16.7209937,24.1428588 17.3571552,23.5066974 17.3571552,22.7142857 L17.3571552,22.7142857 Z M10.5714328,15.5714201 C10.5714328,14.589276 9.76786044,13.7857036 8.78571641,13.7857036 C7.80357239,13.7857036 7,14.589276 7,15.5714201 C7,16.5535641 7.80357239,17.3571365 8.78571641,17.3571365 C9.76786044,17.3571365 10.5714328,16.5535641 10.5714328,15.5714201 L10.5714328,15.5714201 Z M22.1785895,20.571426 C22.1785895,19.8794609 21.6205531,19.3214245 20.928588,19.3214245 C20.2366229,19.3214245 19.6785865,19.8794609 19.6785865,20.571426 C19.6785865,21.2633911 20.2366229,21.8214275 20.928588,21.8214275 C21.6205531,21.8214275 22.1785895,21.2633911 22.1785895,20.571426 L22.1785895,20.571426 Z M12.8928642,10.5714141 C12.8928642,9.48882352 12.0111667,8.60712604 10.9285761,8.60712604 C9.84598554,8.60712604 8.96428806,9.48882352 8.96428806,10.5714141 C8.96428806,11.6540047 9.84598554,12.5357022 10.9285761,12.5357022 C12.0111667,12.5357022 12.8928642,11.6540047 12.8928642,10.5714141 L12.8928642,10.5714141 Z M18.0714418,8.4285544 C18.0714418,7.24551727 17.1116192,6.2856947 15.9285821,6.2856947 C14.7455449,6.2856947 13.7857224,7.24551727 13.7857224,8.4285544 C13.7857224,9.61159152 14.7455449,10.5714141 15.9285821,10.5714141 C17.1116192,10.5714141 18.0714418,9.61159152 18.0714418,8.4285544 L18.0714418,8.4285544 Z M24.1428776,15.5714201 C24.1428776,14.9799015 23.6629663,14.4999902 23.0714477,14.4999902 C22.4799292,14.4999902 22.0000179,14.9799015 22.0000179,15.5714201 C22.0000179,16.1629386 22.4799292,16.6428499 23.0714477,16.6428499 C23.6629663,16.6428499 24.1428776,16.1629386 24.1428776,15.5714201 L24.1428776,15.5714201 Z M21.8214462,10.5714141 C21.8214462,10.0803421 21.41966,9.67855589 20.928588,9.67855589 C20.437516,9.67855589 20.0357298,10.0803421 20.0357298,10.5714141 C20.0357298,11.0624861 20.437516,11.4642723 20.928588,11.4642723 C21.41966,11.4642723 21.8214462,11.0624861 21.8214462,10.5714141 L21.8214462,10.5714141 Z" id="ï„" fill="#000000" sketch:type="MSShapeGroup"></path>
    </g>
</svg>