<?xml version="1.0" encoding="UTF-8" standalone="no"?>
<svg width="30px" height="30px" viewBox="0 0 30 30" version="1.1" xmlns="http://www.w3.org/2000/svg" xmlns:xlink="http://www.w3.org/1999/xlink" xmlns:sketch="http://www.bohemiancoding.com/sketch/ns">
    <!-- Generator: Sketch 3.3.2 (12043) - http://www.bohemiancoding.com/sketch -->
    <title>lock-outline</title>
    <desc>Created with Sketch.</desc>
    <defs></defs>
    <g id="Page-1" stroke="none" stroke-width="1" fill="none" fill-rule="evenodd" sketch:type="MSPage">
        <g id="lock-outline" sketch:type="MSLayerGroup" transform="translate(7.000000, 4.500000)" fill="#000000">
            <path d="M14,7 L13,7 L13,5 C13,2.2 10.8,0 8,0 C5.2,0 3,2.2 3,5 L3,7 L2,7 C0.9,7 0,7.9 0,9 L0,19 C0,20.1 0.9,21 2,21 L14,21 C15.1,21 16,20.1 16,19 L16,9 C16,7.9 15.1,7 14,7 L14,7 Z M8,1.9 C9.7,1.9 11.1,3.3 11.1,5 L11.1,7 L5,7 L5,5 L4.9,5 C4.9,3.3 6.3,1.9 8,1.9 L8,1.9 Z M14,19 L2,19 L2,9 L14,9 L14,19 L14,19 Z" id="Shape" sketch:type="MSShapeGroup"></path>
        </g>
    </g>
</svg>