<?xml version="1.0" encoding="UTF-8" standalone="no"?>
<svg width="30px" height="30px" viewBox="0 0 30 30" version="1.1" xmlns="http://www.w3.org/2000/svg" xmlns:xlink="http://www.w3.org/1999/xlink" xmlns:sketch="http://www.bohemiancoding.com/sketch/ns">
    <!-- Generator: Sketch 3.3.2 (12043) - http://www.bohemiancoding.com/sketch -->
    <title>map</title>
    <desc>Created with Sketch.</desc>
    <defs></defs>
    <g id="Page-1" stroke="none" stroke-width="1" fill="none" fill-rule="evenodd" sketch:type="MSPage">
        <g id="map" sketch:type="MSLayerGroup" transform="translate(6.000000, 6.000000)" fill="#000000">
            <path d="M17.5,0 L17.3,0 L12,2.1 L6,0 L0.4,1.9 C0.2,2 0,2.1 0,2.4 L0,17.5 C0,17.8 0.2,18 0.5,18 L0.7,18 L6,15.9 L12,18 L17.6,16.1 C17.8,16 18,15.8 18,15.6 L18,0.5 C18,0.2 17.8,0 17.5,0 L17.5,0 Z M12,16 L6,13.9 L6,2 L12,4.1 L12,16 L12,16 Z" id="Shape" sketch:type="MSShapeGroup"></path>
        </g>
    </g>
</svg>