<?xml version="1.0" encoding="UTF-8" standalone="no"?>
<svg width="30px" height="30px" viewBox="0 0 30 30" version="1.1" xmlns="http://www.w3.org/2000/svg" xmlns:xlink="http://www.w3.org/1999/xlink" xmlns:sketch="http://www.bohemiancoding.com/sketch/ns">
    <!-- Generator: Sketch 3.3.2 (12043) - http://www.bohemiancoding.com/sketch -->
    <title>note-double-outline</title>
    <desc>Created with Sketch.</desc>
    <defs></defs>
    <g id="Page-1" stroke="none" stroke-width="1" fill="none" fill-rule="evenodd" sketch:type="MSPage">
        <g id="drive-file-copy-4" sketch:type="MSLayerGroup" transform="translate(9.000000, 3.000000)" stroke="#000000" stroke-width="2">
            <path d="M2,0 C0.9,0 0,0.9 0,2 L0,18 C0,19.1 0.9,20 2,20 L14,20 C15.1,20 16,19.1 16,18 L16,6 L10,0 L2,0 L2,0 Z" id="Shape" sketch:type="MSShapeGroup"></path>
        </g>
        <path d="M13.5,8.5 L17.5,8.5" id="Line-Copy-25" stroke="#000000" stroke-linecap="square" sketch:type="MSShapeGroup"></path>
        <path d="M13.5,11.5 L20.5,11.5" id="Line-Copy-26" stroke="#000000" stroke-linecap="square" sketch:type="MSShapeGroup"></path>
        <path d="M13.5,14.5 L20.5,14.5" id="Line-Copy-27" stroke="#000000" stroke-linecap="square" sketch:type="MSShapeGroup"></path>
        <path d="M13.5,17.5 L20.5,17.5" id="Line-Copy-28" stroke="#000000" stroke-linecap="square" sketch:type="MSShapeGroup"></path>
        <path d="M19,27 L7,27 C5.9,27 5,26.04375 5,24.875 L5,10 L7,10 L7,24.875 L19,24.875 L19,27 L19,27 Z" id="Path-Copy-12" fill="#000000" sketch:type="MSShapeGroup"></path>
    </g>
</svg>