<?xml version="1.0" encoding="UTF-8" standalone="no"?>
<svg width="3px" height="3px" viewBox="0 0 3 3" version="1.1" xmlns="http://www.w3.org/2000/svg" xmlns:xlink="http://www.w3.org/1999/xlink" xmlns:sketch="http://www.bohemiancoding.com/sketch/ns">
    <!-- Generator: Sketch 3.3.2 (12043) - http://www.bohemiancoding.com/sketch -->
    <title>Oval 5 Copy 3</title>
    <desc>Created with Sketch.</desc>
    <defs></defs>
    <g id="Page-1" stroke="none" stroke-width="1" fill="none" fill-rule="evenodd" sketch:type="MSPage">
        <g id="label-outline-copy" sketch:type="MSLayerGroup" transform="translate(0.706999, 3.012341) rotate(-44.000000) translate(-0.706999, -3.012341) translate(-9.293001, -4.487659)" fill="#000000">
            <path d="M14.6,0.8 C14.3,0.3 13.7,2.27373675e-13 13,2.27373675e-13 L2,2.27373675e-13 C0.9,2.27373675e-13 8.52651283e-14,0.9 8.52651283e-14,2 L8.52651283e-14,12 C8.52651283e-14,13.1 0.9,14 2,14 L13,14 C13.7,14 14.3,13.7 14.6,13.2 L19,7 L14.6,0.8 L14.6,0.8 Z M13,12 L2,12 L2,2 L13,2 L16.5,7 L13,12 L13,12 Z" id="Shape" sketch:type="MSShapeGroup"></path>
        </g>
        <path d="M1.5,3 C2.32842712,3 3,2.32842712 3,1.5 C3,0.671572875 2.32842712,0 1.5,0 C0.671572875,0 0,0.671572875 0,1.5 C0,2.32842712 0.671572875,3 1.5,3 Z" id="Oval-5-Copy-3" fill="#000000" sketch:type="MSShapeGroup"></path>
    </g>
</svg>