<?xml version="1.0" encoding="UTF-8" standalone="no"?>
<svg width="30px" height="30px" viewBox="0 0 30 30" version="1.1" xmlns="http://www.w3.org/2000/svg" xmlns:xlink="http://www.w3.org/1999/xlink" xmlns:sketch="http://www.bohemiancoding.com/sketch/ns">
    <!-- Generator: Sketch 3.3.2 (12043) - http://www.bohemiancoding.com/sketch -->
    <title>person-plus</title>
    <desc>Created with Sketch.</desc>
    <defs></defs>
    <g id="Page-1" stroke="none" stroke-width="1" fill="none" fill-rule="evenodd" sketch:type="MSPage">
        <g id="person-outline-copy-2" sketch:type="MSLayerGroup" transform="translate(4.000000, 4.000000)" fill="#000000">
            <path d="M14,0 C10.7,0 8,3.15 8,7 C8,10.85 10.7,14 14,14 C17.3,14 20,10.85 20,7 C20,3.15 17.3,0 14,0 L14,0 L14,0 Z" id="Path" stroke="#FFFFFF" stroke-width="2" sketch:type="MSShapeGroup"></path>
            <path d="M5,9 L5,6 L3,6 L3,9 L0,9 L0,11 L3,11 L3,14 L5,14 L5,11 L8,11 L8,9 L5,9 L5,9 Z M6,17 L6,20 L22,20 L22,17 C22,14.3 16.7,13 14,13 C11.3,13 6,14.3 6,17 Z" id="Shape" sketch:type="MSShapeGroup"></path>
        </g>
    </g>
</svg>