<?xml version="1.0" encoding="UTF-8" standalone="no"?>
<svg width="30px" height="30px" viewBox="0 0 30 30" version="1.1" xmlns="http://www.w3.org/2000/svg" xmlns:xlink="http://www.w3.org/1999/xlink" xmlns:sketch="http://www.bohemiancoding.com/sketch/ns">
    <!-- Generator: Sketch 3.3.2 (12043) - http://www.bohemiancoding.com/sketch -->
    <title>person-plus-outline</title>
    <desc>Created with Sketch.</desc>
    <defs></defs>
    <g id="Page-1" stroke="none" stroke-width="1" fill="none" fill-rule="evenodd" sketch:type="MSPage">
        <g id="person-outline-copy" sketch:type="MSLayerGroup" transform="translate(3.000000, 6.000000)">
            <path d="M14,12.9 C17,12.9 20.1,14.4 20.1,15 L20.1,16.1 L7.9,16.1 L7.9,15 C7.9,14.4 11,12.9 14,12.9 L14,12.9 Z M5,7 L5,4 L3,4 L3,7 L0,7 L0,9 L3,9 L3,12 L5,12 L5,9 L8,9 L8,7 L5,7 L5,7 Z M14,11 C11.3,11 6,12.3 6,15 L6,18 L22,18 L22,15 C22,12.3 16.7,11 14,11 L14,11 L14,11 Z" id="Shape" fill="#000000" sketch:type="MSShapeGroup"></path>
            <path d="M14,0 C11.25,0 9,2.7 9,6 C9,9.3 11.25,12 14,12 C16.75,12 19,9.3 19,6 C19,2.7 16.75,0 14,0 L14,0 L14,0 Z" id="Path" stroke="#000000" stroke-width="2" sketch:type="MSShapeGroup"></path>
        </g>
    </g>
</svg>