<?xml version="1.0" encoding="UTF-8" standalone="no"?>
<svg width="30px" height="30px" viewBox="0 0 30 30" version="1.1" xmlns="http://www.w3.org/2000/svg" xmlns:xlink="http://www.w3.org/1999/xlink" xmlns:sketch="http://www.bohemiancoding.com/sketch/ns">
    <!-- Generator: Sketch 3.3.2 (12043) - http://www.bohemiancoding.com/sketch -->
    <title>person-double-outline</title>
    <desc>Created with Sketch.</desc>
    <defs></defs>
    <g id="Page-1" stroke="none" stroke-width="1" fill="none" fill-rule="evenodd" sketch:type="MSPage">
        <g id="group-copy" sketch:type="MSLayerGroup" transform="translate(2.000000, 6.000000)" stroke="#000000" stroke-width="2">
            <path d="M21,5 C21,2.16666667 19.2666667,0 17,0 C14.7333333,0 13,2.16666667 13,5 C13,7.83333333 14.7333333,10 17,10 C19.2666667,10 21,7.83333333 21,5 Z M8,10 C10.2666667,10 12,7.83333333 12,5 C12,2.16666667 10.2666667,0 8,0 C5.73333333,0 4,2.16666667 4,5 C4,7.83333333 5.73333333,10 8,10 L8,10 Z M8,11 C5.37142857,11 0,12.4 0,15.0833333 L0,18 L16,18 L16,15.0833333 C16,12.4 10.6285714,11 8,11 L8,11 Z" id="Shape" sketch:type="MSShapeGroup"></path>
            <path d="M17.25,12 C17.25,12 24.75,12.4166667 24.75,15.3333333 L24.75,17 L17.25,17" id="Path-656" sketch:type="MSShapeGroup"></path>
        </g>
    </g>
</svg>