<?xml version="1.0" encoding="UTF-8" standalone="no"?>
<svg width="30px" height="30px" viewBox="0 0 30 30" version="1.1" xmlns="http://www.w3.org/2000/svg" xmlns:xlink="http://www.w3.org/1999/xlink" xmlns:sketch="http://www.bohemiancoding.com/sketch/ns">
    <!-- Generator: Sketch 3.3.2 (12043) - http://www.bohemiancoding.com/sketch -->
    <title>person-outline</title>
    <desc>Created with Sketch.</desc>
    <defs></defs>
    <g id="Page-1" stroke="none" stroke-width="1" fill="none" fill-rule="evenodd" sketch:type="MSPage">
        <g id="person-outline" sketch:type="MSLayerGroup" transform="translate(7.000000, 5.000000)">
            <path d="M8,12.9 C11,12.9 14.1,14.4 14.1,15 L14.1,16.1 L1.9,16.1 L1.9,15 C1.9,14.4 5,12.9 8,12.9 L8,12.9 Z M8,11 C5.3,11 0,12.3 0,15 L0,18 L16,18 L16,15 C16,12.3 10.7,11 8,11 L8,11 L8,11 Z" id="Shape" fill="#000000" sketch:type="MSShapeGroup"></path>
            <path d="M3,6 C3,9.3 5.25,12 8,12 C10.75,12 13,9.3 13,6 C13,2.7 10.75,0 8,0 C5.25,0 3,2.7 3,6 Z" id="Path" stroke="#000000" stroke-width="2" sketch:type="MSShapeGroup"></path>
        </g>
    </g>
</svg>