<?xml version="1.0" encoding="UTF-8" standalone="no"?>
<svg width="30px" height="30px" viewBox="0 0 30 30" version="1.1" xmlns="http://www.w3.org/2000/svg" xmlns:xlink="http://www.w3.org/1999/xlink" xmlns:sketch="http://www.bohemiancoding.com/sketch/ns">
    <!-- Generator: Sketch 3.3.2 (12043) - http://www.bohemiancoding.com/sketch -->
    <title>pinterest</title>
    <desc>Created with Sketch.</desc>
    <defs></defs>
    <g id="Page-1" stroke="none" stroke-width="1" fill="none" fill-rule="evenodd" sketch:type="MSPage">
        <path d="M25.5714531,15.2142735 C25.5714531,9.53569525 20.9643047,4.92854691 15.2857265,4.92854691 C9.60714835,4.92854691 5,9.53569525 5,15.2142735 C5,19.4330285 7.53125302,23.0491042 11.1607216,24.6428561 C11.1339359,23.919641 11.1473288,23.0491042 11.334829,22.2723176 C11.334829,22.2723176 11.5357221,21.4419594 12.6607234,16.6740966 C12.3259016,16.0178458 12.3259016,15.0401661 12.3259016,15.0401661 C12.3259016,13.5133786 13.2098312,12.3749844 14.3080468,12.3749844 C15.2455479,12.3749844 15.7009056,13.0848066 15.7009056,13.9285576 C15.7009056,14.8660588 15.0982263,16.2723104 14.7901902,17.5714191 C14.5357257,18.6696347 15.339298,19.5535643 16.4107279,19.5535643 C18.3660874,19.5535643 19.6785889,17.0490971 19.6785889,14.0892721 C19.6785889,11.8258766 18.1518014,10.1383745 15.3928695,10.1383745 C12.2723301,10.1383745 10.3303635,12.4687345 10.3303635,15.0669518 C10.3303635,15.9642743 10.598221,16.5937394 11.0134,17.0892757 C11.2009002,17.3169545 11.227686,17.3973118 11.1607216,17.6651692 C11.1071501,17.8526695 11.0000072,18.3080271 10.9464357,18.4821345 C10.8794713,18.749992 10.6651853,18.8437421 10.4375065,18.749992 C9.00446906,18.1607055 8.3348254,16.5803465 8.3348254,14.8124873 C8.3348254,11.8928409 10.7991141,8.38390817 15.6741199,8.38390817 C19.6116246,8.38390817 22.1964491,11.2365901 22.1964491,14.2767723 C22.1964491,18.32142 19.9464464,21.3348165 16.6384067,21.3348165 C15.5267983,21.3348165 14.4821542,20.7321372 14.1339395,20.0491006 C13.5312602,22.4196392 13.4107243,22.8749969 13.4107243,22.8749969 C13.1964383,23.6651764 12.7544735,24.4553559 12.3660802,25.0714281 C13.3035813,25.3526784 14.2678682,25.5 15.2857265,25.5 C20.9643047,25.5 25.5714531,20.8928517 25.5714531,15.2142735 L25.5714531,15.2142735 Z" id="" fill="#000000" sketch:type="MSShapeGroup"></path>
    </g>
</svg>