<?xml version="1.0" encoding="UTF-8" standalone="no"?>
<svg width="30px" height="30px" viewBox="0 0 30 30" version="1.1" xmlns="http://www.w3.org/2000/svg" xmlns:xlink="http://www.w3.org/1999/xlink" xmlns:sketch="http://www.bohemiancoding.com/sketch/ns">
    <!-- Generator: Sketch 3.3.2 (12043) - http://www.bohemiancoding.com/sketch -->
    <title>place-outline</title>
    <desc>Created with Sketch.</desc>
    <defs></defs>
    <g id="Page-1" stroke="none" stroke-width="1" fill="none" fill-rule="evenodd" sketch:type="MSPage">
        <g id="place-copy" sketch:type="MSLayerGroup" transform="translate(8.000000, 5.000000)" stroke="#000000" stroke-width="2">
            <path d="M7,0 C3.1,0 0,3.1 0,7 C0,12.2 7,20 7,20 C7,20 14,12.2 14,7 C14,3.1 10.9,0 7,0 L7,0 Z M7,8.25 C6.3,8.25 5.75,7.7 5.75,7 C5.75,6.3 6.3,5.75 7,5.75 C7.7,5.75 8.25,6.3 8.25,7 C8.25,7.7 7.7,8.25 7,8.25 L7,8.25 Z" id="Shape" sketch:type="MSShapeGroup"></path>
        </g>
    </g>
</svg>