<?xml version="1.0" encoding="UTF-8" standalone="no"?>
<svg width="30px" height="30px" viewBox="0 0 30 30" version="1.1" xmlns="http://www.w3.org/2000/svg" xmlns:xlink="http://www.w3.org/1999/xlink" xmlns:sketch="http://www.bohemiancoding.com/sketch/ns">
    <!-- Generator: Sketch 3.3.2 (12043) - http://www.bohemiancoding.com/sketch -->
    <title>quote</title>
    <desc>Created with Sketch.</desc>
    <defs></defs>
    <g id="Page-1" stroke="none" stroke-width="1" fill="none" fill-rule="evenodd" sketch:type="MSPage">
        <path d="M14.5714388,16.5714209 C14.5714388,15.3883838 13.6116162,14.4285612 12.4285791,14.4285612 L9.92857611,14.4285612 C9.33705755,14.4285612 8.85714626,13.9486499 8.85714626,13.3571314 L8.85714626,12.9999881 C8.85714626,11.4263255 10.1406299,10.1428418 11.7142925,10.1428418 L12.4285791,10.1428418 C12.8192046,10.1428418 13.1428657,9.81918072 13.1428657,9.42855525 L13.1428657,7.99998212 C13.1428657,7.60935665 12.8192046,7.28569555 12.4285791,7.28569555 L11.7142925,7.28569555 C8.56696735,7.28569555 6,9.8526629 6,12.9999881 L6,20.8571403 C6,22.0401774 6.95982257,23 8.1428597,23 L12.4285791,23 C13.6116162,23 14.5714388,22.0401774 14.5714388,20.8571403 L14.5714388,16.5714209 Z M24.5714507,16.5714209 C24.5714507,15.3883838 23.6116281,14.4285612 22.428591,14.4285612 L19.928588,14.4285612 C19.3370695,14.4285612 18.8571582,13.9486499 18.8571582,13.3571314 L18.8571582,12.9999881 C18.8571582,11.4263255 20.1406419,10.1428418 21.7143044,10.1428418 L22.428591,10.1428418 C22.8192165,10.1428418 23.1428776,9.81918072 23.1428776,9.42855525 L23.1428776,7.99998212 C23.1428776,7.60935665 22.8192165,7.28569555 22.428591,7.28569555 L21.7143044,7.28569555 C18.5669793,7.28569555 16.0000119,9.8526629 16.0000119,12.9999881 L16.0000119,20.8571403 C16.0000119,22.0401774 16.9598345,23 18.1428716,23 L22.428591,23 C23.6116281,23 24.5714507,22.0401774 24.5714507,20.8571403 L24.5714507,16.5714209 Z" id="ï„" fill="#000000" sketch:type="MSShapeGroup"></path>
    </g>
</svg>