<?xml version="1.0" encoding="UTF-8" standalone="no"?>
<svg width="30px" height="30px" viewBox="0 0 30 30" version="1.1" xmlns="http://www.w3.org/2000/svg" xmlns:xlink="http://www.w3.org/1999/xlink" xmlns:sketch="http://www.bohemiancoding.com/sketch/ns">
    <!-- Generator: Sketch 3.3.2 (12043) - http://www.bohemiancoding.com/sketch -->
    <title>refresh</title>
    <desc>Created with Sketch.</desc>
    <defs></defs>
    <g id="Page-1" stroke="none" stroke-width="1" fill="none" fill-rule="evenodd" sketch:type="MSPage">
        <g id="refresh" sketch:type="MSLayerGroup" transform="translate(7.000000, 7.000000)" fill="#000000">
            <path d="M13.6,2.4 C12.2,0.9 10.2,0 8,0 C3.6,0 0,3.6 0,8 C0,12.4 3.6,16 8,16 C11.7,16 14.8,13.4 15.7,10 L13.6,10 C12.8,12.3 10.6,14 8,14 C4.7,14 2,11.3 2,8 C2,4.7 4.7,2 8,2 C9.7,2 11.1,2.7 12.2,3.8 L9,7 L16,7 L16,0 L13.6,2.4 L13.6,2.4 Z" id="Shape" sketch:type="MSShapeGroup"></path>
        </g>
    </g>
</svg>