<?xml version="1.0" encoding="UTF-8" standalone="no"?>
<svg width="30px" height="30px" viewBox="0 0 30 30" version="1.1" xmlns="http://www.w3.org/2000/svg" xmlns:xlink="http://www.w3.org/1999/xlink" xmlns:sketch="http://www.bohemiancoding.com/sketch/ns">
    <!-- Generator: Sketch 3.3.2 (12043) - http://www.bohemiancoding.com/sketch -->
    <title>settings-applications</title>
    <desc>Created with Sketch.</desc>
    <defs></defs>
    <g id="Page-1" stroke="none" stroke-width="1" fill="none" fill-rule="evenodd" sketch:type="MSPage">
        <g id="settings-applications" sketch:type="MSLayerGroup" transform="translate(5.000000, 4.000000)" fill="#000000">
            <path d="M10,8.25 C8.42857143,8.25 7.14285714,9.4875 7.14285714,11 C7.14285714,12.5125 8.42857143,13.75 10,13.75 C11.5714286,13.75 12.8571429,12.5125 12.8571429,11 C12.8571429,9.4875 11.5714286,8.25 10,8.25 L10,8.25 Z M17.4285714,11 L17.4285714,11.9625 L19.5714286,13.6125 C19.7142857,13.75 19.8571429,14.025 19.7142857,14.1625 L17.7142857,17.4625 C17.5714286,17.7375 17.2857143,17.7375 17.1428571,17.7375 L14.7142857,16.775 C14.1428571,17.1875 13.5714286,17.4625 13,17.7375 L12.5714286,20.35 C12.5714286,20.625 12.2857143,20.7625 12.1428571,20.7625 L8.14285714,20.7625 C7.85714286,20.7625 7.71428571,20.625 7.71428571,20.35 L7.14285714,17.7375 C6.57142857,17.4625 6,17.1875 5.42857143,16.775 L3,17.7375 C2.71428571,17.875 2.57142857,17.7375 2.42857143,17.4625 L0.428571429,14.1625 C0.285714286,13.8875 0.428571429,13.75 0.571428571,13.6125 L2.71428571,11.9625 L2.71428571,11 L2.71428571,10.0375 L0.571428571,8.3875 C0.428571429,8.25 0.285714286,7.975 0.428571429,7.8375 L2.42857143,4.5375 C2.57142857,4.2625 2.85714286,4.2625 3,4.2625 L5.42857143,5.225 C6,4.95 6.57142857,4.5375 7.14285714,4.2625 L7.57142857,1.65 C7.57142857,1.375 7.85714286,1.2375 8,1.2375 L12,1.2375 C12.2857143,1.2375 12.4285714,1.375 12.4285714,1.65 L12.8571429,4.2625 C13.4285714,4.5375 14,4.8125 14.5714286,5.225 L17,4.2625 C17.2857143,4.125 17.4285714,4.2625 17.5714286,4.5375 L19.5714286,7.8375 C19.7142857,8.1125 19.5714286,8.25 19.4285714,8.3875 L17.2857143,10.0375 C17.4285714,10.3125 17.4285714,10.725 17.4285714,11 L17.4285714,11 Z" id="Shape" sketch:type="MSShapeGroup"></path>
        </g>
    </g>
</svg>