<?xml version="1.0" encoding="UTF-8" standalone="no"?>
<svg width="30px" height="30px" viewBox="0 0 30 30" version="1.1" xmlns="http://www.w3.org/2000/svg" xmlns:xlink="http://www.w3.org/1999/xlink" xmlns:sketch="http://www.bohemiancoding.com/sketch/ns">
    <!-- Generator: Sketch 3.3.2 (12043) - http://www.bohemiancoding.com/sketch -->
    <title>settings-applications-outline</title>
    <desc>Created with Sketch.</desc>
    <defs></defs>
    <g id="Page-1" stroke="none" stroke-width="1" fill="none" fill-rule="evenodd" sketch:type="MSPage">
        <g id="settings-applications-copy" sketch:type="MSLayerGroup" transform="translate(6.000000, 6.000000)" stroke="#000000" stroke-width="2">
            <path d="M9,6.5 C7.58571429,6.5 6.42857143,7.625 6.42857143,9 C6.42857143,10.375 7.58571429,11.5 9,11.5 C10.4142857,11.5 11.5714286,10.375 11.5714286,9 C11.5714286,7.625 10.4142857,6.5 9,6.5 L9,6.5 Z M15.6857143,9 L15.6857143,9.875 L17.6142857,11.375 C17.7428571,11.5 17.8714286,11.75 17.7428571,11.875 L15.9428571,14.875 C15.8142857,15.125 15.5571429,15.125 15.4285714,15.125 L13.2428571,14.25 C12.7285714,14.625 12.2142857,14.875 11.7,15.125 L11.3142857,17.5 C11.3142857,17.75 11.0571429,17.875 10.9285714,17.875 L7.32857143,17.875 C7.07142857,17.875 6.94285714,17.75 6.94285714,17.5 L6.42857143,15.125 C5.91428571,14.875 5.4,14.625 4.88571429,14.25 L2.7,15.125 C2.44285714,15.25 2.31428571,15.125 2.18571429,14.875 L0.385714286,11.875 C0.257142857,11.625 0.385714286,11.5 0.514285714,11.375 L2.44285714,9.875 L2.44285714,9 L2.44285714,8.125 L0.514285714,6.625 C0.385714286,6.5 0.257142857,6.25 0.385714286,6.125 L2.18571429,3.125 C2.31428571,2.875 2.57142857,2.875 2.7,2.875 L4.88571429,3.75 C5.4,3.5 5.91428571,3.125 6.42857143,2.875 L6.81428571,0.5 C6.81428571,0.25 7.07142857,0.125 7.2,0.125 L10.8,0.125 C11.0571429,0.125 11.1857143,0.25 11.1857143,0.5 L11.5714286,2.875 C12.0857143,3.125 12.6,3.375 13.1142857,3.75 L15.3,2.875 C15.5571429,2.75 15.6857143,2.875 15.8142857,3.125 L17.6142857,6.125 C17.7428571,6.375 17.6142857,6.5 17.4857143,6.625 L15.5571429,8.125 C15.6857143,8.375 15.6857143,8.75 15.6857143,9 L15.6857143,9 Z" id="Shape" sketch:type="MSShapeGroup"></path>
        </g>
    </g>
</svg>