<?xml version="1.0" encoding="UTF-8" standalone="no"?>
<svg width="30px" height="30px" viewBox="0 0 30 30" version="1.1" xmlns="http://www.w3.org/2000/svg" xmlns:xlink="http://www.w3.org/1999/xlink" xmlns:sketch="http://www.bohemiancoding.com/sketch/ns">
    <!-- Generator: Sketch 3.3.2 (12043) - http://www.bohemiancoding.com/sketch -->
    <title>skype</title>
    <desc>Created with Sketch.</desc>
    <defs></defs>
    <g id="Page-1" stroke="none" stroke-width="1" fill="none" fill-rule="evenodd" sketch:type="MSPage">
        <path d="M20.7098402,17.0937404 C20.7098402,19.8124936 18.084837,21.0714237 15.5669769,21.0714237 C12.5535804,21.0714237 10.0357203,19.7321364 10.0357203,18.084813 C10.0357203,17.348205 10.4508994,16.6785613 11.3884005,16.6785613 C12.8214379,16.6785613 12.9553666,18.7410638 15.4330482,18.7410638 C16.611621,18.7410638 17.3750148,18.2187417 17.3750148,17.5357052 C17.3750148,16.6785613 16.6384067,16.5446326 15.446441,16.2499894 L13.4910816,15.767846 C11.5357221,15.2990954 10.0357203,14.495523 10.0357203,12.2455203 C10.0357203,9.5267671 12.7276878,8.52230162 15.0446548,8.52230162 C17.5759078,8.52230162 20.1339466,9.5267671 20.1339466,11.0669475 C20.1339466,11.8437341 19.6116246,12.5267707 18.7410878,12.5267707 C17.4419791,12.5267707 17.4018005,10.9865903 15.2991194,10.9865903 C14.1205466,10.9865903 13.3705457,11.3080192 13.3705457,12.0178415 C13.3705457,12.7946281 14.1339395,12.9687355 15.1517978,13.2098072 L16.5446566,13.5312362 C18.4464446,13.9598081 20.7098402,14.7633805 20.7098402,17.0937404 L20.7098402,17.0937404 Z M25.5714531,19.9999939 C25.5714531,18.821421 25.1696669,17.7365983 24.5000232,16.8660616 C24.633952,16.2232037 24.7143092,15.5401671 24.7143092,14.8571306 C24.7143092,9.64730296 20.4955542,5.42854793 15.2857265,5.42854793 C14.60269,5.42854793 13.9196535,5.50890517 13.2767956,5.6428339 C12.4062588,4.97319024 11.3214361,4.57140405 10.1428633,4.57140405 C7.30357417,4.57140405 5,6.87497822 5,9.71426732 C5,10.8928402 5.40178619,11.9776629 6.07142985,12.8481996 C5.93750112,13.4910575 5.85714388,14.1740941 5.85714388,14.8571306 C5.85714388,20.0669582 10.0758989,24.2857133 15.2857265,24.2857133 C15.9687631,24.2857133 16.6517996,24.205356 17.2946575,24.0714273 C18.1651943,24.7410709 19.250017,25.1428571 20.4285898,25.1428571 C23.2678789,25.1428571 25.5714531,22.839283 25.5714531,19.9999939 L25.5714531,19.9999939 Z" id="" fill="#000000" sketch:type="MSShapeGroup"></path>
    </g>
</svg>