<?xml version="1.0" encoding="UTF-8" standalone="no"?>
<svg width="30px" height="30px" viewBox="0 0 30 30" version="1.1" xmlns="http://www.w3.org/2000/svg" xmlns:xlink="http://www.w3.org/1999/xlink" xmlns:sketch="http://www.bohemiancoding.com/sketch/ns">
    <!-- Generator: Sketch 3.3.2 (12043) - http://www.bohemiancoding.com/sketch -->
    <title>sort-amount-asc</title>
    <desc>Created with Sketch.</desc>
    <defs></defs>
    <g id="Page-1" stroke="none" stroke-width="1" fill="none" fill-rule="evenodd" sketch:type="MSPage">
        <path d="M13.2142955,20.9285702 C13.2142955,20.7276771 13.0580453,20.5714269 12.8571522,20.5714269 L10.7142925,20.5714269 L10.7142925,5.2142657 C10.7142925,5.01337261 10.5580423,4.85712242 10.3571492,4.85712242 L8.21428955,4.85712242 C8.01339645,4.85712242 7.85714626,5.01337261 7.85714626,5.2142657 L7.85714626,20.5714269 L5.71428657,20.5714269 C5.56919711,20.5714269 5.43526838,20.6607127 5.37946474,20.7946414 C5.3236611,20.9285702 5.35714328,21.0736596 5.45758983,21.1852669 L9.02902266,24.7566997 C9.10714775,24.8236641 9.19643357,24.8571463 9.28571939,24.8571463 C9.37500522,24.8571463 9.46429104,24.8236641 9.54241613,24.7566997 L13.1026882,21.1964276 C13.1696526,21.1183025 13.2142955,21.0290167 13.2142955,20.9285702 L13.2142955,20.9285702 Z M25.0000238,22.3571433 C25.0000238,22.1562502 24.8437737,22 24.6428806,22 L15.3571552,22 C15.1562621,22 15.0000119,22.1562502 15.0000119,22.3571433 L15.0000119,24.500003 C15.0000119,24.7008961 15.1562621,24.8571463 15.3571552,24.8571463 L24.6428806,24.8571463 C24.8437737,24.8571463 25.0000238,24.7008961 25.0000238,24.500003 L25.0000238,22.3571433 Z M22.8571641,16.6428508 C22.8571641,16.4419577 22.700914,16.2857075 22.5000209,16.2857075 L15.3571552,16.2857075 C15.1562621,16.2857075 15.0000119,16.4419577 15.0000119,16.6428508 L15.0000119,18.7857105 C15.0000119,18.9866036 15.1562621,19.1428537 15.3571552,19.1428537 L22.5000209,19.1428537 C22.700914,19.1428537 22.8571641,18.9866036 22.8571641,18.7857105 L22.8571641,16.6428508 Z M20.7143044,10.9285582 C20.7143044,10.7276651 20.5580543,10.5714149 20.3571612,10.5714149 L15.3571552,10.5714149 C15.1562621,10.5714149 15.0000119,10.7276651 15.0000119,10.9285582 L15.0000119,13.0714179 C15.0000119,13.272311 15.1562621,13.4285612 15.3571552,13.4285612 L20.3571612,13.4285612 C20.5580543,13.4285612 20.7143044,13.272311 20.7143044,13.0714179 L20.7143044,10.9285582 Z M18.5714447,5.2142657 C18.5714447,5.01337261 18.4151946,4.85712242 18.2143015,4.85712242 L15.3571552,4.85712242 C15.1562621,4.85712242 15.0000119,5.01337261 15.0000119,5.2142657 L15.0000119,7.3571254 C15.0000119,7.5580185 15.1562621,7.71426868 15.3571552,7.71426868 L18.2143015,7.71426868 C18.4151946,7.71426868 18.5714447,7.5580185 18.5714447,7.3571254 L18.5714447,5.2142657 Z" id="" fill="#000000" sketch:type="MSShapeGroup"></path>
    </g>
</svg>