<?xml version="1.0" encoding="UTF-8" standalone="no"?>
<svg width="30px" height="30px" viewBox="0 0 30 30" version="1.1" xmlns="http://www.w3.org/2000/svg" xmlns:xlink="http://www.w3.org/1999/xlink" xmlns:sketch="http://www.bohemiancoding.com/sketch/ns">
    <!-- Generator: Sketch 3.3.2 (12043) - http://www.bohemiancoding.com/sketch -->
    <title>sort-numeric-asc</title>
    <desc>Created with Sketch.</desc>
    <defs></defs>
    <g id="Page-1" stroke="none" stroke-width="1" fill="none" fill-rule="evenodd" sketch:type="MSPage">
        <path d="M21.0223393,19.5111577 C21.0223393,20.1361585 20.4084993,20.5714269 19.683052,20.5714269 C18.6227829,20.5714269 18.1093894,19.8906225 18.1093894,19.0870501 C18.1093894,18.2611563 18.6004614,17.6249948 19.3817124,17.6249948 C20.2745706,17.6249948 21.0223393,18.5959781 21.0223393,19.5111577 L21.0223393,19.5111577 Z M14.2142955,20.9285702 C14.2142955,20.7276771 14.0580453,20.5714269 13.8571522,20.5714269 L11.7142925,20.5714269 L11.7142925,5.2142657 C11.7142925,5.01337261 11.5580423,4.85712242 11.3571492,4.85712242 L9.21428955,4.85712242 C9.01339645,4.85712242 8.85714626,5.01337261 8.85714626,5.2142657 L8.85714626,20.5714269 L6.71428657,20.5714269 C6.56919711,20.5714269 6.43526838,20.6607127 6.37946474,20.7946414 C6.3236611,20.9285702 6.35714328,21.0736596 6.45758983,21.1852669 L10.0290227,24.7566997 C10.1071478,24.8236641 10.1964336,24.8571463 10.2857194,24.8571463 C10.3750052,24.8571463 10.464291,24.8236641 10.5424161,24.7566997 L14.1026882,21.1964276 C14.1696526,21.1183025 14.2142955,21.0290167 14.2142955,20.9285702 L14.2142955,20.9285702 Z M22.5848412,20.1584799 C22.5848412,17.7366021 21.1562681,16.2857075 19.3817124,16.2857075 C17.7410854,16.2857075 16.5580483,17.5468697 16.5580483,19.0870501 C16.5580483,20.5379447 17.6183174,21.8102676 19.2366229,21.8102676 C19.8951058,21.8102676 20.5535888,21.5758924 20.8660892,21.2410705 L20.8884106,21.2410705 C20.6763568,22.4017862 19.9843917,23.517859 18.6451044,23.517859 C18.3214433,23.517859 18.0312643,23.4508946 17.8080498,23.3727695 C17.6852818,23.3392873 17.5625138,23.2946444 17.4620672,23.2500015 L17.0267989,24.5111637 C17.1607276,24.5669673 17.3169778,24.622771 17.4955494,24.6785746 C17.7857283,24.7790212 18.1986753,24.8571463 18.700908,24.8571463 C21.3571612,24.8571463 22.5848412,22.4129469 22.5848412,20.1584799 L22.5848412,20.1584799 Z M22.2500194,12.1562383 L20.4084993,12.1562383 L20.4084993,4.85712242 L19.0357298,4.85712242 L16.8928701,6.92185703 L17.8080498,7.8816796 L18.5000149,7.2343574 C18.6451044,7.08926794 18.7343902,6.97766066 18.7901938,6.88837484 L18.8683189,6.75444611 L18.8906404,6.75444611 L18.8906404,6.93301775 C18.8906404,7.04462503 18.8794796,7.18971449 18.8794796,7.33480395 L18.8794796,12.1562383 L17.0156381,12.1562383 L17.0156381,13.4285612 L22.2500194,13.4285612 L22.2500194,12.1562383 Z" id="" fill="#000000" sketch:type="MSShapeGroup"></path>
    </g>
</svg>