<?xml version="1.0" encoding="UTF-8" standalone="no"?>
<svg width="30px" height="30px" viewBox="0 0 30 30" version="1.1" xmlns="http://www.w3.org/2000/svg" xmlns:xlink="http://www.w3.org/1999/xlink" xmlns:sketch="http://www.bohemiancoding.com/sketch/ns">
    <!-- Generator: Sketch 3.3.2 (12043) - http://www.bohemiancoding.com/sketch -->
    <title>sort-alpha-desc</title>
    <desc>Created with Sketch.</desc>
    <defs></defs>
    <g id="Page-1" stroke="none" stroke-width="1" fill="none" fill-rule="evenodd" sketch:type="MSPage">
        <path d="M18.2924266,20.8392843 L19.1071597,18.4062457 C19.1852848,18.1830312 19.1964455,18.0156203 19.2299277,17.8816915 L19.2634099,17.658477 L19.3080528,17.658477 C19.3080528,17.7254413 19.3192135,17.7924057 19.3303742,17.8816915 L19.464303,18.4062457 L20.2678753,20.8392843 L18.2924266,20.8392843 Z M13.2142955,20.9285702 C13.2142955,20.7276771 13.0580453,20.5714269 12.8571522,20.5714269 L10.7142925,20.5714269 L10.7142925,5.2142657 C10.7142925,5.01337261 10.5580423,4.85712242 10.3571492,4.85712242 L8.21428955,4.85712242 C8.01339645,4.85712242 7.85714626,5.01337261 7.85714626,5.2142657 L7.85714626,20.5714269 L5.71428657,20.5714269 C5.56919711,20.5714269 5.43526838,20.6607127 5.37946474,20.7946414 C5.3236611,20.9285702 5.35714328,21.0736596 5.45758983,21.1852669 L9.02902266,24.7566997 C9.10714775,24.8236641 9.19643357,24.8571463 9.28571939,24.8571463 C9.37500522,24.8571463 9.46429104,24.8236641 9.54241613,24.7566997 L13.1026882,21.1964276 C13.1696526,21.1183025 13.2142955,21.0290167 13.2142955,20.9285702 L13.2142955,20.9285702 Z M23.5379685,23.6741091 L22.7567176,23.6741091 L20.1897503,16.2857075 L18.3817124,16.2857075 L15.814745,23.6741091 L15.0334941,23.6741091 L15.0334941,24.8571463 L18.2366229,24.8571463 L18.2366229,23.6741091 L17.3995684,23.6741091 L17.9241225,22.0669644 L20.6361794,22.0669644 L21.1607336,23.6741091 L20.323679,23.6741091 L20.323679,24.8571463 L23.5379685,24.8571463 L23.5379685,23.6741091 Z M22.5446638,10.8281117 L21.1942157,10.8281117 L21.1942157,12.1562383 L18.4263553,12.1562383 C18.2924266,12.1562383 18.19198,12.1562383 18.0915335,12.167399 L17.9352833,12.2008812 L17.9352833,12.167399 L18.0580513,12.0557917 C18.1361764,11.9665059 18.2254622,11.8660593 18.2924266,11.7656128 L22.410735,5.85042718 L22.410735,4.85712242 L16.0826025,4.85712242 L16.0826025,7.41292904 L17.4218898,7.41292904 L17.4218898,6.12944537 L20.0111786,6.12944537 C20.1451073,6.12944537 20.2567146,6.11828464 20.3460004,6.09596318 C20.4129648,6.09596318 20.4576077,6.08480246 20.5022506,6.08480246 L20.5022506,6.11828464 L20.3794826,6.21873119 C20.323679,6.27453483 20.2343932,6.3861421 20.1451073,6.52007083 L16.0267989,12.4240957 L16.0267989,13.4285612 L22.5446638,13.4285612 L22.5446638,10.8281117 Z" id="" fill="#000000" sketch:type="MSShapeGroup"></path>
    </g>
</svg>