<?xml version="1.0" encoding="UTF-8" standalone="no"?>
<svg width="30px" height="30px" viewBox="0 0 30 30" version="1.1" xmlns="http://www.w3.org/2000/svg" xmlns:xlink="http://www.w3.org/1999/xlink" xmlns:sketch="http://www.bohemiancoding.com/sketch/ns">
    <!-- Generator: Sketch 3.3.2 (12043) - http://www.bohemiancoding.com/sketch -->
    <title>sort-amount-desc</title>
    <desc>Created with Sketch.</desc>
    <defs></defs>
    <g id="Page-1" stroke="none" stroke-width="1" fill="none" fill-rule="evenodd" sketch:type="MSPage">
        <path d="M18.5714447,22.3571433 C18.5714447,22.1562502 18.4151946,22 18.2143015,22 L15.3571552,22 C15.1562621,22 15.0000119,22.1562502 15.0000119,22.3571433 L15.0000119,24.500003 C15.0000119,24.7008961 15.1562621,24.8571463 15.3571552,24.8571463 L18.2143015,24.8571463 C18.4151946,24.8571463 18.5714447,24.7008961 18.5714447,24.500003 L18.5714447,22.3571433 Z M13.2142955,20.9285702 C13.2142955,20.7276771 13.0580453,20.5714269 12.8571522,20.5714269 L10.7142925,20.5714269 L10.7142925,5.2142657 C10.7142925,5.01337261 10.5580423,4.85712242 10.3571492,4.85712242 L8.21428955,4.85712242 C8.01339645,4.85712242 7.85714626,5.01337261 7.85714626,5.2142657 L7.85714626,20.5714269 L5.71428657,20.5714269 C5.56919711,20.5714269 5.43526838,20.6607127 5.37946474,20.7946414 C5.3236611,20.9285702 5.35714328,21.0736596 5.45758983,21.1852669 L9.02902266,24.7566997 C9.10714775,24.8236641 9.19643357,24.8571463 9.28571939,24.8571463 C9.37500522,24.8571463 9.46429104,24.8236641 9.54241613,24.7566997 L13.1026882,21.1964276 C13.1696526,21.1183025 13.2142955,21.0290167 13.2142955,20.9285702 L13.2142955,20.9285702 Z M20.7143044,16.6428508 C20.7143044,16.4419577 20.5580543,16.2857075 20.3571612,16.2857075 L15.3571552,16.2857075 C15.1562621,16.2857075 15.0000119,16.4419577 15.0000119,16.6428508 L15.0000119,18.7857105 C15.0000119,18.9866036 15.1562621,19.1428537 15.3571552,19.1428537 L20.3571612,19.1428537 C20.5580543,19.1428537 20.7143044,18.9866036 20.7143044,18.7857105 L20.7143044,16.6428508 Z M22.8571641,10.9285582 C22.8571641,10.7276651 22.700914,10.5714149 22.5000209,10.5714149 L15.3571552,10.5714149 C15.1562621,10.5714149 15.0000119,10.7276651 15.0000119,10.9285582 L15.0000119,13.0714179 C15.0000119,13.272311 15.1562621,13.4285612 15.3571552,13.4285612 L22.5000209,13.4285612 C22.700914,13.4285612 22.8571641,13.272311 22.8571641,13.0714179 L22.8571641,10.9285582 Z M25.0000238,5.2142657 C25.0000238,5.01337261 24.8437737,4.85712242 24.6428806,4.85712242 L15.3571552,4.85712242 C15.1562621,4.85712242 15.0000119,5.01337261 15.0000119,5.2142657 L15.0000119,7.3571254 C15.0000119,7.5580185 15.1562621,7.71426868 15.3571552,7.71426868 L24.6428806,7.71426868 C24.8437737,7.71426868 25.0000238,7.5580185 25.0000238,7.3571254 L25.0000238,5.2142657 Z" id="" fill="#000000" sketch:type="MSShapeGroup"></path>
    </g>
</svg>