<?xml version="1.0" encoding="UTF-8" standalone="no"?>
<svg width="30px" height="30px" viewBox="0 0 30 30" version="1.1" xmlns="http://www.w3.org/2000/svg" xmlns:xlink="http://www.w3.org/1999/xlink" xmlns:sketch="http://www.bohemiancoding.com/sketch/ns">
    <!-- Generator: Sketch 3.3.2 (12043) - http://www.bohemiancoding.com/sketch -->
    <title>sort-numeric-desc</title>
    <desc>Created with Sketch.</desc>
    <defs></defs>
    <g id="Page-1" stroke="none" stroke-width="1" fill="none" fill-rule="evenodd" sketch:type="MSPage">
        <path d="M21.0223393,8.08257269 C21.0223393,8.70757344 20.4084993,9.14284182 19.683052,9.14284182 C18.6227829,9.14284182 18.1093894,8.46203743 18.1093894,7.65846505 C18.1093894,6.8325712 18.6004614,6.19640973 19.3817124,6.19640973 C20.2745706,6.19640973 21.0223393,7.16739303 21.0223393,8.08257269 L21.0223393,8.08257269 Z M14.2142955,20.9285702 C14.2142955,20.7276771 14.0580453,20.5714269 13.8571522,20.5714269 L11.7142925,20.5714269 L11.7142925,5.2142657 C11.7142925,5.01337261 11.5580423,4.85712242 11.3571492,4.85712242 L9.21428955,4.85712242 C9.01339645,4.85712242 8.85714626,5.01337261 8.85714626,5.2142657 L8.85714626,20.5714269 L6.71428657,20.5714269 C6.56919711,20.5714269 6.43526838,20.6607127 6.37946474,20.7946414 C6.3236611,20.9285702 6.35714328,21.0736596 6.45758983,21.1852669 L10.0290227,24.7566997 C10.1071478,24.8236641 10.1964336,24.8571463 10.2857194,24.8571463 C10.3750052,24.8571463 10.464291,24.8236641 10.5424161,24.7566997 L14.1026882,21.1964276 C14.1696526,21.1183025 14.2142955,21.0290167 14.2142955,20.9285702 L14.2142955,20.9285702 Z M22.2500194,23.5848233 L20.4084993,23.5848233 L20.4084993,16.2857075 L19.0357298,16.2857075 L16.8928701,18.3504421 L17.8080498,19.3102647 L18.5000149,18.6629425 C18.6451044,18.517853 18.7343902,18.4062457 18.7901938,18.3169599 L18.8683189,18.1830312 L18.8906404,18.1830312 L18.8906404,18.3616028 C18.8906404,18.4732101 18.8794796,18.6182995 18.8794796,18.763389 L18.8794796,23.5848233 L17.0156381,23.5848233 L17.0156381,24.8571463 L22.2500194,24.8571463 L22.2500194,23.5848233 Z M22.5848412,8.7298949 C22.5848412,6.30801701 21.1562681,4.85712242 19.3817124,4.85712242 C17.7410854,4.85712242 16.5580483,6.11828464 16.5580483,7.65846505 C16.5580483,9.10935963 17.6183174,10.3816826 19.2366229,10.3816826 C19.8951058,10.3816826 20.5535888,10.1473073 20.8660892,9.81248547 L20.8884106,9.81248547 C20.6763568,10.9732011 19.9843917,12.0892739 18.6451044,12.0892739 C18.3214433,12.0892739 18.0312643,12.0223095 17.8080498,11.9441844 C17.6852818,11.9107023 17.5625138,11.8660593 17.4620672,11.8214164 L17.0267989,13.0825787 C17.1607276,13.1383823 17.3169778,13.1941859 17.4955494,13.2499896 C17.7857283,13.3504361 18.1986753,13.4285612 18.700908,13.4285612 C21.3571612,13.4285612 22.5848412,10.9843619 22.5848412,8.7298949 L22.5848412,8.7298949 Z" id="" fill="#000000" sketch:type="MSShapeGroup"></path>
    </g>
</svg>