<?xml version="1.0" encoding="UTF-8" standalone="no"?>
<svg width="30px" height="30px" viewBox="0 0 30 30" version="1.1" xmlns="http://www.w3.org/2000/svg" xmlns:xlink="http://www.w3.org/1999/xlink" xmlns:sketch="http://www.bohemiancoding.com/sketch/ns">
    <!-- Generator: Sketch 3.3.2 (12043) - http://www.bohemiancoding.com/sketch -->
    <title>sort-alpha-asc</title>
    <desc>Created with Sketch.</desc>
    <defs></defs>
    <g id="Page-1" stroke="none" stroke-width="1" fill="none" fill-rule="evenodd" sketch:type="MSPage">
        <path d="M18.2924266,9.41069928 L19.1071597,6.97766066 C19.1852848,6.75444611 19.1964455,6.5870352 19.2299277,6.45310647 L19.2634099,6.22989191 L19.3080528,6.22989191 C19.3080528,6.29685628 19.3192135,6.36382065 19.3303742,6.45310647 L19.464303,6.97766066 L20.2678753,9.41069928 L18.2924266,9.41069928 Z M13.2142955,20.9285702 C13.2142955,20.7276771 13.0580453,20.5714269 12.8571522,20.5714269 L10.7142925,20.5714269 L10.7142925,5.2142657 C10.7142925,5.01337261 10.5580423,4.85712242 10.3571492,4.85712242 L8.21428955,4.85712242 C8.01339645,4.85712242 7.85714626,5.01337261 7.85714626,5.2142657 L7.85714626,20.5714269 L5.71428657,20.5714269 C5.56919711,20.5714269 5.43526838,20.6607127 5.37946474,20.7946414 C5.3236611,20.9285702 5.35714328,21.0736596 5.45758983,21.1852669 L9.02902266,24.7566997 C9.10714775,24.8236641 9.19643357,24.8571463 9.28571939,24.8571463 C9.37500522,24.8571463 9.46429104,24.8236641 9.54241613,24.7566997 L13.1026882,21.1964276 C13.1696526,21.1183025 13.2142955,21.0290167 13.2142955,20.9285702 L13.2142955,20.9285702 Z M22.5446638,22.2566967 L21.1942157,22.2566967 L21.1942157,23.5848233 L18.4263553,23.5848233 C18.2924266,23.5848233 18.19198,23.5848233 18.0915335,23.6071448 L17.9352833,23.6294662 L17.9352833,23.6071448 L18.0580513,23.4843768 C18.1361764,23.3950909 18.2254622,23.2946444 18.2924266,23.1941979 L22.410735,17.2790122 L22.410735,16.2857075 L16.0826025,16.2857075 L16.0826025,18.8415141 L17.4218898,18.8415141 L17.4218898,17.5580304 L20.0111786,17.5580304 C20.1451073,17.5580304 20.2567146,17.5468697 20.3460004,17.5245482 C20.4129648,17.5245482 20.4576077,17.5133875 20.5022506,17.5133875 L20.5022506,17.5468697 L20.3794826,17.6473162 C20.323679,17.7031199 20.2343932,17.8147272 20.1451073,17.9486559 L16.0267989,23.8526808 L16.0267989,24.8571463 L22.5446638,24.8571463 L22.5446638,22.2566967 Z M23.5379685,12.2455241 L22.7567176,12.2455241 L20.1897503,4.85712242 L18.3817124,4.85712242 L15.814745,12.2455241 L15.0334941,12.2455241 L15.0334941,13.4285612 L18.2366229,13.4285612 L18.2366229,12.2455241 L17.3995684,12.2455241 L17.9241225,10.6383793 L20.6361794,10.6383793 L21.1607336,12.2455241 L20.323679,12.2455241 L20.323679,13.4285612 L23.5379685,13.4285612 L23.5379685,12.2455241 Z" id="ï…" fill="#000000" sketch:type="MSShapeGroup"></path>
    </g>
</svg>