<?xml version="1.0" encoding="UTF-8" standalone="no"?>
<svg width="30px" height="30px" viewBox="0 0 30 30" version="1.1" xmlns="http://www.w3.org/2000/svg" xmlns:xlink="http://www.w3.org/1999/xlink" xmlns:sketch="http://www.bohemiancoding.com/sketch/ns">
    <!-- Generator: Sketch 3.3.2 (12043) - http://www.bohemiancoding.com/sketch -->
    <title>trello</title>
    <desc>Created with Sketch.</desc>
    <defs></defs>
    <g id="Page-1" stroke="none" stroke-width="1" fill="none" fill-rule="evenodd" sketch:type="MSPage">
        <path d="M13.8571522,19.9999974 C13.8571522,20.2008905 13.700902,20.3571407 13.5000089,20.3571407 L8.1428597,20.3571407 C7.9419666,20.3571407 7.78571641,20.2008905 7.78571641,19.9999974 L7.78571641,8.57141239 C7.78571641,8.3705193 7.9419666,8.21426911 8.1428597,8.21426911 L13.5000089,8.21426911 C13.700902,8.21426911 13.8571522,8.3705193 13.8571522,8.57141239 L13.8571522,19.9999974 Z M21.3571612,15.7142781 C21.3571612,15.9151711 21.200911,16.0714213 21.0000179,16.0714213 L15.6428686,16.0714213 C15.4419755,16.0714213 15.2857254,15.9151711 15.2857254,15.7142781 L15.2857254,8.57141239 C15.2857254,8.3705193 15.4419755,8.21426911 15.6428686,8.21426911 L21.0000179,8.21426911 C21.200911,8.21426911 21.3571612,8.3705193 21.3571612,8.57141239 L21.3571612,15.7142781 Z M23.1428776,7.14283926 C23.1428776,6.7522138 22.8192165,6.4285527 22.428591,6.4285527 L6.71428657,6.4285527 C6.3236611,6.4285527 6,6.7522138 6,7.14283926 L6,22.8571437 C6,23.2477692 6.3236611,23.5714303 6.71428657,23.5714303 L22.428591,23.5714303 C22.8192165,23.5714303 23.1428776,23.2477692 23.1428776,22.8571437 L23.1428776,7.14283926 Z" id="ï†" fill="#000000" sketch:type="MSShapeGroup"></path>
    </g>
</svg>