<?xml version="1.0" encoding="UTF-8" standalone="no"?>
<svg width="30px" height="30px" viewBox="0 0 30 30" version="1.1" xmlns="http://www.w3.org/2000/svg" xmlns:xlink="http://www.w3.org/1999/xlink" xmlns:sketch="http://www.bohemiancoding.com/sketch/ns">
    <!-- Generator: Sketch 3.3.2 (12043) - http://www.bohemiancoding.com/sketch -->
    <title>twitter</title>
    <desc>Created with Sketch.</desc>
    <defs></defs>
    <g id="Page-1" stroke="none" stroke-width="1" fill="none" fill-rule="evenodd" sketch:type="MSPage">
        <g id="sc-twitter" sketch:type="MSLayerGroup" transform="translate(6.000000, 7.428569)" fill="#020202">
            <path d="M19.5025806,1.7775 C18.8006452,2.078125 18.0509677,2.28125 17.2606452,2.375 C18.0670968,1.90625 18.6877419,1.16375 18.9780645,0.28125 C18.223871,0.715 17.3896774,1.03125 16.4987097,1.199375 C15.7845161,0.460625 14.7683871,0 13.6477419,0 C11.4903226,0 9.74451613,1.695 9.74451613,3.785 C9.74451613,4.081875 9.77677419,4.37125 9.84516129,4.64875 C6.59935484,4.4925 3.72,2.984375 1.79677419,0.69125 C1.46193548,1.25 1.2683871,1.9025 1.2683871,2.59375 C1.2683871,3.90625 1.96193548,5.06625 3.01032258,5.74625 C2.36516129,5.730625 1.76064516,5.55875 1.23612903,5.273125 L1.23612903,5.320625 C1.23612903,7.15625 2.58322581,8.68375 4.36903226,9.03125 C4.04258065,9.116875 3.69612903,9.16375 3.34129032,9.16375 C3.09096774,9.16375 2.84516129,9.140625 2.60709677,9.09375 C3.10322581,10.5975 4.54709677,11.69125 6.25677419,11.7225 C4.92193548,12.738125 3.23612903,13.34375 1.40580645,13.34375 C1.09096774,13.34375 0.780645161,13.324375 0.474193548,13.289375 C2.19612903,14.375 4.2483871,15 6.44967742,15 C13.6393548,15 17.5670968,9.230625 17.5670968,4.22625 C17.5670968,4.0625 17.5625806,3.898125 17.5548387,3.738125 C18.3167742,3.203125 18.9780645,2.539375 19.5025806,1.7775" id="Fill-122" sketch:type="MSShapeGroup"></path>
        </g>
    </g>
</svg>