<?xml version="1.0" encoding="UTF-8" standalone="no"?>
<svg width="30px" height="30px" viewBox="0 0 30 30" version="1.1" xmlns="http://www.w3.org/2000/svg" xmlns:xlink="http://www.w3.org/1999/xlink" xmlns:sketch="http://www.bohemiancoding.com/sketch/ns">
    <!-- Generator: Sketch 3.3.2 (12043) - http://www.bohemiancoding.com/sketch -->
    <title>unquote</title>
    <desc>Created with Sketch.</desc>
    <defs></defs>
    <g id="Page-1" stroke="none" stroke-width="1" fill="none" fill-rule="evenodd" sketch:type="MSPage">
        <path d="M14.5714388,9.42855525 C14.5714388,8.24551813 13.6116162,7.28569555 12.4285791,7.28569555 L8.1428597,7.28569555 C6.95982257,7.28569555 6,8.24551813 6,9.42855525 L6,13.7142746 C6,14.8973118 6.95982257,15.8571343 8.1428597,15.8571343 L10.6428627,15.8571343 C11.2343812,15.8571343 11.7142925,16.3370456 11.7142925,16.9285642 L11.7142925,17.2857075 C11.7142925,18.8593701 10.4308089,20.1428537 8.85714626,20.1428537 L8.1428597,20.1428537 C7.75223423,20.1428537 7.42857313,20.4665148 7.42857313,20.8571403 L7.42857313,22.2857134 C7.42857313,22.6763389 7.75223423,23 8.1428597,23 L8.85714626,23 C12.0044714,23 14.5714388,20.4330327 14.5714388,17.2857075 L14.5714388,9.42855525 Z M24.5714507,9.42855525 C24.5714507,8.24551813 23.6116281,7.28569555 22.428591,7.28569555 L18.1428716,7.28569555 C16.9598345,7.28569555 16.0000119,8.24551813 16.0000119,9.42855525 L16.0000119,13.7142746 C16.0000119,14.8973118 16.9598345,15.8571343 18.1428716,15.8571343 L20.6428746,15.8571343 C21.2343932,15.8571343 21.7143044,16.3370456 21.7143044,16.9285642 L21.7143044,17.2857075 C21.7143044,18.8593701 20.4308208,20.1428537 18.8571582,20.1428537 L18.1428716,20.1428537 C17.7522462,20.1428537 17.4285851,20.4665148 17.4285851,20.8571403 L17.4285851,22.2857134 C17.4285851,22.6763389 17.7522462,23 18.1428716,23 L18.8571582,23 C22.0044834,23 24.5714507,20.4330327 24.5714507,17.2857075 L24.5714507,9.42855525 Z" id="" fill="#000000" sketch:type="MSShapeGroup"></path>
    </g>
</svg>