<?xml version="1.0" encoding="UTF-8" standalone="no"?>
<svg width="30px" height="30px" viewBox="0 0 30 30" version="1.1" xmlns="http://www.w3.org/2000/svg" xmlns:xlink="http://www.w3.org/1999/xlink" xmlns:sketch="http://www.bohemiancoding.com/sketch/ns">
    <!-- Generator: Sketch 3.3.2 (12043) - http://www.bohemiancoding.com/sketch -->
    <title>visibility-off</title>
    <desc>Created with Sketch.</desc>
    <defs>
        <path id="path-1" d="M0,7.5 C1.7,11.9 6,15 11,15 C16,15 20.3,11.9 22,7.5 C20.3,3.1 16,0 11,0 C6,0 1.7,3.1 0,7.5 Z"></path>
    </defs>
    <g id="Page-1" stroke="none" stroke-width="1" fill="none" fill-rule="evenodd" sketch:type="MSPage">
        <g id="Shape-Copy-+-Oval-5-Copy-+-Line" sketch:type="MSLayerGroup" transform="translate(4.000000, 6.000000)">
            <path d="M0,8.5 C1.7,12.9 6,16 11,16 C16,16 20.3,12.9 22,8.5 C20.3,4.1 16,1 11,1 C6,1 1.7,4.1 0,8.5 Z" id="Shape-Copy" stroke="#000000" stroke-width="2" sketch:type="MSShapeGroup"></path>
            <circle id="Oval-5-Copy" fill="#000000" sketch:type="MSShapeGroup" cx="11" cy="8.5" r="2"></circle>
            <g id="Oval-5-Copy-2-+-Line-Copy-4-Mask" transform="translate(0.000000, 1.000000)">
                <mask id="mask-2" sketch:name="Mask" fill="white">
                    <use xlink:href="#path-1"></use>
                </mask>
                <use id="Mask" sketch:type="MSShapeGroup" xlink:href="#path-1"></use>
                <circle id="Oval-5-Copy-2" fill="#000000" sketch:type="MSShapeGroup" mask="url(#mask-2)" cx="11" cy="7.5" r="2"></circle>
                <path d="M7.25,-1.5 L18.75,16.5" id="Line-Copy-4" stroke="#FFFFFF" stroke-width="2" stroke-linecap="square" sketch:type="MSShapeGroup" mask="url(#mask-2)"></path>
            </g>
            <path d="M5.5,0 L17,18" id="Line" stroke="#000000" stroke-width="2" stroke-linecap="square" sketch:type="MSShapeGroup"></path>
        </g>
    </g>
</svg>