<?xml version="1.0" encoding="UTF-8" standalone="no"?>
<svg width="30px" height="30px" viewBox="0 0 30 30" version="1.1" xmlns="http://www.w3.org/2000/svg" xmlns:xlink="http://www.w3.org/1999/xlink" xmlns:sketch="http://www.bohemiancoding.com/sketch/ns">
    <!-- Generator: Sketch 3.3.2 (12043) - http://www.bohemiancoding.com/sketch -->
    <title>wb-night</title>
    <desc>Created with Sketch.</desc>
    <defs></defs>
    <g id="Page-1" stroke="none" stroke-width="1" fill="none" fill-rule="evenodd" sketch:type="MSPage">
        <path d="M21.0848382,19.3995505 C19.7455509,21.017856 17.7254592,22 15.5714388,22 C11.6317019,22 8.42857313,18.7968712 8.42857313,14.8571343 C8.42857313,11.6205233 10.5491114,8.89730581 13.5178649,8.01560833 C12.7700962,9.19864545 12.3571492,10.5825757 12.3571492,11.9999881 C12.3571492,16.140618 15.7165282,19.499997 19.8571582,19.499997 C20.2701051,19.499997 20.683052,19.4665148 21.0848382,19.3995505 L21.0848382,19.3995505 Z M23.3504659,18.4508886 C23.4732339,18.1830312 23.4174303,17.8593701 23.2053765,17.6473162 C22.9933226,17.4352624 22.6808223,17.3794588 22.4018041,17.5022268 C21.587071,17.8816915 20.7388557,18.0714239 19.8571582,18.0714239 C16.5089399,18.0714239 13.7857224,15.3482064 13.7857224,11.9999881 C13.7857224,10.281236 14.4888482,8.69641271 15.7611712,7.53569704 C15.973225,7.33480395 16.0513501,7.01114285 15.9285821,6.73212466 C15.8169748,6.46426719 15.5602781,6.28569555 15.2477777,6.29685628 C10.6272365,6.46426719 7,10.2254324 7,14.8571343 C7,19.5781221 10.850451,23.4285731 15.5714388,23.4285731 C18.8973356,23.4285731 21.955375,21.4754458 23.3504659,18.4508886 L23.3504659,18.4508886 Z" id="" fill="#000000" sketch:type="MSShapeGroup"></path>
    </g>
</svg>