<?xml version="1.0" encoding="UTF-8" standalone="no"?>
<svg width="30px" height="30px" viewBox="0 0 30 30" version="1.1" xmlns="http://www.w3.org/2000/svg" xmlns:xlink="http://www.w3.org/1999/xlink" xmlns:sketch="http://www.bohemiancoding.com/sketch/ns">
    <!-- Generator: Sketch 3.3.2 (12043) - http://www.bohemiancoding.com/sketch -->
    <title>yen</title>
    <desc>Created with Sketch.</desc>
    <defs></defs>
    <g id="Page-1" stroke="none" stroke-width="1" fill="none" fill-rule="evenodd" sketch:type="MSPage">
        <path d="M16.2299187,23 C16.4196511,23 16.587062,22.8437498 16.587062,22.6428567 L16.587062,18.9598166 L19.823673,18.9598166 C20.0245661,18.9598166 20.1808163,18.8035664 20.1808163,18.6026733 L20.1808163,17.4531184 C20.1808163,17.2522253 20.0245661,17.0959751 19.823673,17.0959751 L16.587062,17.0959751 L16.587062,16.1473133 L19.823673,16.1473133 C20.0245661,16.1473133 20.1808163,15.9910631 20.1808163,15.79017 L20.1808163,14.6294543 C20.1808163,14.4397219 20.0245661,14.272311 19.823673,14.272311 L17.4241166,14.272311 L20.9174243,7.81024975 C20.973228,7.69864247 20.973228,7.56471374 20.9062636,7.46426719 C20.8392992,7.35265992 20.727692,7.28569555 20.604924,7.28569555 L18.473225,7.28569555 C18.3392963,7.28569555 18.2053675,7.36382065 18.1495639,7.49774938 L16.0178649,12.185255 C15.8058111,12.676327 15.5602751,13.1450775 15.3705427,13.6249888 C15.1919711,13.2008812 15.0133994,12.7544521 14.745542,12.2298979 L12.3459855,7.48658865 C12.2790212,7.36382065 12.1562532,7.28569555 12.0223244,7.28569555 L9.85714328,7.28569555 C9.73437528,7.28569555 9.61160728,7.35265992 9.54464291,7.46426719 C9.48883927,7.57587447 9.48883927,7.7098032 9.54464291,7.82141048 L13.1272365,14.272311 L10.7388408,14.272311 C10.5379477,14.272311 10.3816975,14.4397219 10.3816975,14.6294543 L10.3816975,15.79017 C10.3816975,15.9910631 10.5379477,16.1473133 10.7388408,16.1473133 L13.9531303,16.1473133 L13.9531303,17.0959751 L10.7388408,17.0959751 C10.5379477,17.0959751 10.3816975,17.2522253 10.3816975,17.4531184 L10.3816975,18.6026733 C10.3816975,18.8035664 10.5379477,18.9598166 10.7388408,18.9598166 L13.9531303,18.9598166 L13.9531303,22.6428567 C13.9531303,22.8437498 14.1093805,23 14.3102736,23 L16.2299187,23 Z" id="" fill="#000000" sketch:type="MSShapeGroup"></path>
    </g>
</svg>