<?xml version="1.0" encoding="UTF-8" standalone="no"?>
<svg width="30px" height="30px" viewBox="0 0 30 30" version="1.1" xmlns="http://www.w3.org/2000/svg" xmlns:xlink="http://www.w3.org/1999/xlink" xmlns:sketch="http://www.bohemiancoding.com/sketch/ns">
    <!-- Generator: Sketch 3.3.3 (12081) - http://www.bohemiancoding.com/sketch -->
    <title>mail-outline</title>
    <desc>Created with Sketch.</desc>
    <defs></defs>
    <g id="Page-1" stroke="none" stroke-width="1" fill="none" fill-rule="evenodd" sketch:type="MSPage">
        <g id="mail-copy" sketch:type="MSLayerGroup" transform="translate(5.000000, 7.000000)" fill="#000000">
            <path d="M18,2 L18,2 L2,2 C2.0045695,2 2,2.0045695 2,2 L2,14 C2,13.9954305 2.0045695,14 2,14 L18,14 C17.9954305,14 18,13.9954305 18,14 L18,2 C18,2.0045695 17.9954305,2 18,2 L18,2 Z M18,0 L18,0 C19.1,0 20,0.9 20,2 L20,14 C20,15.1 19.1,16 18,16 L2,16 C0.9,16 0,15.1 0,14 L0,2 C0,0.9 0.9,0 2,0 L18,0 Z" id="Shape" sketch:type="MSShapeGroup"></path>
            <path d="M18,4 L18,4 L18,2 L10,7 L2,2 L2,4 L10,9 L18,4 Z" id="Path" sketch:type="MSShapeGroup"></path>
        </g>
    </g>
</svg>